<?xml version="1.0" encoding="utf-8"?>
<!-- Generator: Adobe Illustrator 28.0.0, SVG Export Plug-In . SVG Version: 6.00 Build 0)  -->
<svg version="1.1" id="a" xmlns="http://www.w3.org/2000/svg" xmlns:xlink="http://www.w3.org/1999/xlink" x="0px" y="0px"
	 viewBox="0 0 51.8 52.5" style="enable-background:new 0 0 51.8 52.5;" xml:space="preserve">
<style type="text/css">
	.st0{fill:#FFFFFF;}
</style>
<g>
	<path class="st0" d="M24.8,2.1l5.3,5.3L21.5,16c-1.1,1.1-1.4,2.7-0.8,4.2c0.6,1.4,2,2.4,3.5,2.4h25.6V30L48,30H24.2
		c-1.5,0-2.9,0.9-3.5,2.4c-0.6,1.4-0.3,3.1,0.8,4.2l8.6,8.6l-5.3,5.3L3,28.6c-0.6-0.6-1-1.5-1-2.4c0-0.9,0.3-1.7,1-2.4l4.4-4.3
		L24.8,2.1 M24.8,0c-0.5,0-0.9,0.2-1.3,0.5L5.9,18.1l-4.3,4.3c-2.1,2.1-2.1,5.5,0,7.6L23.5,52c0.4,0.4,0.8,0.5,1.3,0.5
		s0.9-0.2,1.3-0.5l5.6-5.6c0.7-0.7,0.7-1.9,0-2.6l-8.7-8.7C21.8,34,22.6,32,24.2,32H50v0c1,0,1.8-0.8,1.8-1.8v-7.9
		c0-1-0.8-1.8-1.8-1.8H24.2c-1.6,0-2.4-2-1.3-3.1l8.7-8.7c0.7-0.7,0.7-1.9,0-2.6l-5.6-5.6C25.7,0.2,25.2,0,24.8,0L24.8,0z"/>
</g>
</svg>
