<?xml version="1.0" encoding="UTF-8"?><svg id="a" xmlns="http://www.w3.org/2000/svg" viewBox="0 0 62.78 63.49"><defs><style>.b{fill:none;stroke:#fff;stroke-miterlimit:10;stroke-width:3px;}</style></defs><path class="b" d="m30.28,61.99c-1.55,0-3.02-.6-4.11-1.7L4.24,38.36c-1.77-1.77-2.74-4.12-2.74-6.62,0-2.5.98-4.85,2.74-6.62l4.35-4.34L26.16,3.21c1.1-1.1,2.56-1.71,4.12-1.71s3.02.61,4.12,1.71l5.56,5.57c2.27,2.27,2.26,5.96,0,8.23l-5,5h20.5c3.21,0,5.82,2.61,5.82,5.82v7.86c0,3.21-2.61,5.82-5.82,5.82h-20.5l5,5c2.27,2.27,2.27,5.96,0,8.22l-5.56,5.57c-1.1,1.1-2.56,1.71-4.12,1.71Z"/></svg>