<?xml version="1.0" encoding="UTF-8"?><svg id="a" xmlns="http://www.w3.org/2000/svg" viewBox="0 0 152 152.01"><defs><style>.b{fill:none;stroke:#fff;stroke-miterlimit:10;stroke-width:4px;}</style></defs><path class="b" d="m75.53,2c4.38,0,8.5,1.7,11.59,4.78l58.03,57.61c3.12,3.08,4.85,7.21,4.85,11.61s-1.73,8.53-4.86,11.63l-58.02,57.6c-3.08,3.07-7.2,4.77-11.58,4.77s-8.49-1.69-11.59-4.77l-23.97-23.79c-2.33-2.33-3.6-5.4-3.6-8.66,0-2.03.49-3.98,1.41-5.71h-19.36c-9.06,0-16.43-7.35-16.43-16.38v-29.48c0-9.03,7.37-16.38,16.43-16.38h19.32c-2.38-4.63-1.63-10.41,2.2-14.24L63.95,6.77c3.1-3.08,7.21-4.77,11.59-4.77Z"/></svg>