<?xml version="1.0" encoding="UTF-8"?><svg id="a" xmlns="http://www.w3.org/2000/svg" viewBox="0 0 40.81 75.66"><defs><style>.b{fill:#58595b;stroke-width:0px;}</style></defs><rect class="b" x="2.5" y="2.5" width="35.81" height="70.66" rx="10.52" ry="10.52"/><path class="b" d="m27.78,5c4.43,0,8.02,3.59,8.02,8.02v49.62c0,4.43-3.59,8.02-8.02,8.02h-14.76c-4.43,0-8.02-3.59-8.02-8.02V13.02c0-4.43,3.59-8.02,8.02-8.02h14.76M27.78,0h-14.76C5.84,0,0,5.84,0,13.02v49.62C0,69.82,5.84,75.66,13.02,75.66h14.76c7.18,0,13.02-5.84,13.02-13.02V13.02C40.81,5.84,34.96,0,27.78,0h0Z"/></svg>