<?xml version="1.0" encoding="UTF-8"?><svg id="a" xmlns="http://www.w3.org/2000/svg" viewBox="0 0 40.81 124.96"><defs><style>.b{fill:#58595b;stroke-width:0px;}</style></defs><path class="b" d="m13.02,2.5h14.76c5.81,0,10.52,4.71,10.52,10.52v98.92c0,5.81-4.71,10.52-10.52,10.52h-14.76c-5.81,0-10.52-4.71-10.52-10.52V13.02C2.5,7.21,7.21,2.5,13.02,2.5Z"/><path class="b" d="m27.78,5c4.43,0,8.02,3.59,8.02,8.02v98.92c0,4.43-3.59,8.02-8.02,8.02h-14.76c-4.43,0-8.02-3.59-8.02-8.02V13.02c0-4.43,3.59-8.02,8.02-8.02h14.76M27.78,0h-14.76C5.84,0,0,5.84,0,13.02v98.92C0,119.12,5.84,124.96,13.02,124.96h14.76c7.18,0,13.02-5.84,13.02-13.02V13.02C40.81,5.84,34.96,0,27.78,0h0Z"/></svg>