<?xml version="1.0" encoding="UTF-8"?>
<svg id="Layer_1" data-name="Layer 1" xmlns="http://www.w3.org/2000/svg" viewBox="0 0 128 128">
  <defs>
    <style>
      .cls-1 {
        fill: #fff;
        stroke-width: 0px;
      }
    </style>
  </defs>
  <path class="cls-1" d="m58.99,1.86l-23.97,23.79c-.86.86-.86,2.26,0,3.13,1.69,1.68,2.45,3.74,2.45,5.76,0,4.23-3.31,8.28-8.3,8.28H6.43C2.88,42.82,0,45.68,0,49.21v29.48c0,3.52,2.88,6.38,6.43,6.38h22.84c7.39,0,11.08,8.86,5.86,14.04l-.11.11c-.86.86-.86,2.27,0,3.13l23.97,23.79c2.51,2.49,6.58,2.49,9.08,0l58.04-57.62c2.52-2.49,2.52-6.54,0-9.03L68.07,1.86c-2.5-2.49-6.57-2.49-9.08,0Zm9.08,15l42.94,42.62c2.51,2.49,2.51,6.54,0,9.03l-41.38,41.08c-3.38,3.34-8.82,3.34-12.19,0l-7.31-7.26c-.87-.86-.87-2.27,0-3.13l10.8-10.71c5.21-5.17,1.51-14.04-5.86-14.04H17.11c-3.55,0-6.42-2.85-6.42-6.38v-8.26c0-3.53,2.87-6.38,6.42-6.38h37.85c7.38,0,11.08-8.86,5.86-14.05l-10.69-10.6c-.87-.87-.87-2.27,0-3.13l8.86-8.79c2.51-2.49,6.58-2.49,9.08,0Z"/>
</svg>