<?xml version="1.0" encoding="UTF-8"?><svg id="a" xmlns="http://www.w3.org/2000/svg" viewBox="0 0 51.78 52.5"><defs><style>.b{fill:#fff;stroke-width:0px;}</style></defs><path class="b" d="m24.77,2.08l5.3,5.31-8.59,8.59c-1.1,1.1-1.42,2.73-.83,4.16.59,1.43,1.98,2.36,3.53,2.36h25.59v7.5h-1.82s-23.77,0-23.77,0c-1.55,0-2.93.93-3.53,2.36-.59,1.43-.27,3.06.82,4.16l8.59,8.59-5.3,5.31L2.98,28.63c-.63-.63-.98-1.48-.98-2.38s.35-1.74.98-2.37l4.35-4.34L24.77,2.08m0-2.08c-.47,0-.93.18-1.28.53L5.92,18.12l-4.35,4.34c-2.09,2.09-2.09,5.49,0,7.58l21.92,21.92c.35.36.82.53,1.28.53s.93-.18,1.28-.53l5.56-5.57c.71-.71.71-1.86,0-2.57l-8.72-8.72c-1.14-1.14-.33-3.1,1.29-3.1h25.77c1.01,0,1.82-.83,1.82-1.83v-7.86c0-1.01-.82-1.82-1.82-1.82h-25.77c-1.62,0-2.44-1.95-1.29-3.1l8.72-8.72c.71-.71.71-1.86,0-2.57L26.06.53c-.35-.35-.82-.53-1.28-.53h0Z"/></svg>