<?xml version="1.0" encoding="UTF-8"?>
<svg id="Layer_2" data-name="Layer 2" xmlns="http://www.w3.org/2000/svg" viewBox="0 0 128 128">
  <defs>
    <style>
      .cls-1 {
        fill: none;
      }

      .cls-1, .cls-2 {
        stroke-width: 0px;
      }

      .cls-2 {
        fill: #fff;
      }
    </style>
  </defs>
  <g>
    <path class="cls-2" d="m63.53,9.45c3.31,0,6.43,1.29,8.77,3.62l42.93,42.61c2.36,2.34,3.66,5.45,3.66,8.77s-1.3,6.44-3.66,8.77l-41.38,41.08c-2.78,2.74-6.44,4.25-10.33,4.25s-7.55-1.51-10.32-4.24l-7.31-7.26c-1.56-1.54-2.42-3.61-2.42-5.82s.86-4.28,2.43-5.83l10.79-10.7c.9-.89.69-1.87.48-2.38-.22-.52-.78-1.4-2.11-1.4H17.11c-6.85,0-12.42-5.55-12.42-12.38v-8.26c0-6.83,5.57-12.38,12.42-12.38h37.85c1.34,0,1.91-.88,2.12-1.4.21-.5.42-1.49-.49-2.4l-10.68-10.59c-1.58-1.58-2.43-3.65-2.43-5.86,0-2.2.87-4.26,2.44-5.8l8.85-8.78c2.34-2.33,5.46-3.61,8.77-3.61m0-4c-4.37,0-8.49,1.69-11.59,4.77l-8.85,8.78c-2.32,2.29-3.61,5.36-3.62,8.63-.01,3.28,1.27,6.37,3.6,8.7l7.63,7.56H17.11c-9.05,0-16.42,7.35-16.42,16.38v8.26c0,9.03,7.37,16.38,16.42,16.38h33.69l-7.71,7.64c-2.33,2.3-3.62,5.39-3.62,8.67s1.28,6.36,3.61,8.67l7.31,7.26c3.52,3.49,8.18,5.41,13.13,5.41s9.61-1.92,13.14-5.4l41.38-41.08c3.12-3.09,4.84-7.22,4.84-11.61s-1.72-8.52-4.84-11.61L75.12,10.23c-3.09-3.08-7.21-4.78-11.59-4.78h0Z"/>
    <path class="cls-2" d="m68.07,17.32l42.94,42.62c2.51,2.49,2.51,6.54,0,9.03l-41.38,41.08c-3.38,3.34-8.82,3.34-12.19,0l-7.31-7.26c-.87-.86-.87-2.27,0-3.13l10.8-10.71c5.21-5.17,1.51-14.04-5.86-14.04H17.11c-3.55,0-6.42-2.85-6.42-6.38v-8.26c0-3.53,2.87-6.38,6.42-6.38h37.85c7.38,0,11.08-8.86,5.86-14.05l-10.69-10.6c-.87-.87-.87-2.27,0-3.13l8.86-8.79c2.51-2.49,6.58-2.49,9.08,0Z"/>
  </g>
  <rect class="cls-1" width="128" height="128" transform="translate(128 128) rotate(180)"/>
</svg>