<?xml version="1.0" encoding="UTF-8"?><svg id="a" xmlns="http://www.w3.org/2000/svg" viewBox="0 0 51.78 52.49"><defs><style>.b{fill:#fff;stroke-width:0px;}</style></defs><path class="b" d="m49.96,32h-25.77c-1.62,0-2.43,1.96-1.29,3.1l8.72,8.72c.71.71.71,1.86,0,2.57l-5.56,5.57c-.71.71-1.86.71-2.57,0L1.57,30.04c-2.09-2.09-2.09-5.49,0-7.58l4.35-4.34L23.49.53c.71-.71,1.86-.71,2.57,0l5.56,5.57c.71.71.71,1.86,0,2.57l-8.72,8.72c-1.15,1.15-.33,3.1,1.29,3.1h25.77c1,0,1.82.81,1.82,1.82v7.86c0,1-.81,1.82-1.82,1.82h0Z"/></svg>