<?xml version="1.0" encoding="UTF-8"?><svg id="a" xmlns="http://www.w3.org/2000/svg" viewBox="0 0 515.04 361.32"><defs><style>.b{fill:none;}.b,.c,.d,.e{stroke-width:0px;}.c{fill:#58595b;}.d{fill:#bcbec0;}.e{fill:#fff;}</style></defs><path class="c" d="m24.76,359.82c-5.99,0-11.52-3.2-14.8-8.56-1.24-2.01-2.11-4.31-2.66-7.01l-5.23-25.57c-2.13-10.54,1.76-19.72,10.67-25.17l34.3-21.01c2.45-1.5,5.04-2.34,7.71-2.51.31-.02.62-.03.92-.03,1.05,0,2.11.11,3.17.34.66-1.48,1.45-2.87,2.35-4.15,1.92-2.71,4.2-4.89,6.78-6.47l35.82-21.94c2.99-1.83,6.08-2.86,9.2-3.06.36-.02.72-.03,1.08-.03,1.15,0,2.29.12,3.4.34.71-1.75,1.62-3.42,2.72-4.99,1.92-2.71,4.2-4.88,6.77-6.46l35.83-21.95c2.99-1.83,6.08-2.86,9.2-3.05.36-.02.72-.03,1.08-.03.75,0,1.5.05,2.25.15,1.27-3.42,3.54-6.41,6.62-8.72l.5-.38,16.95-10.38c2.42-1.48,5-2.32,7.65-2.49.33-.02.66-.03.99-.03,5.36,0,10.3,2.83,13.19,7.56,1.04,1.69,1.78,3.56,2.2,5.56l.32,1.56c1.48-.55,3-.87,4.55-.97.33-.02.66-.03.99-.03,5.37,0,10.3,2.83,13.19,7.56,1.03,1.68,1.76,3.54,2.18,5.52l1.88,9.18c1.49,7.34-1.26,14.45-7.37,19.02l-.5.38-30.37,18.6c-2.94,1.8-6,2.81-9.09,3.01-.36.02-.71.03-1.07.03-1.1,0-2.19-.11-3.26-.32-1.78,4.69-5.13,8.64-9.77,11.48l-35.82,21.94c-2.94,1.8-6,2.81-9.08,3.01-.36.02-.71.03-1.07.03-1.1,0-2.19-.11-3.26-.32-1.78,4.69-5.13,8.64-9.77,11.48l-35.82,21.94c-2.94,1.8-6,2.81-9.08,3.01-.21.01-.42.02-.64.03-1.53,2.85-3.83,5.26-6.68,7.01l-38.83,23.78c-2.99,1.83-6.08,2.86-9.2,3.05-.36.02-.72.03-1.08.03Z"/><path class="d" d="m208.03,178.17c4.86,0,9.26,2.51,11.91,6.84.95,1.53,1.63,3.26,2.01,5.09l.69,3.36c1.84-.93,3.77-1.46,5.74-1.59.3-.02.6-.03.89-.03,4.86,0,9.27,2.51,11.91,6.84.94,1.53,1.61,3.23,1.99,5.05l1.88,9.18c1.38,6.76-1.17,13.3-6.8,17.52l-.45.34-30.31,18.56c-2.73,1.67-5.56,2.61-8.4,2.79-.33.02-.65.03-.98.03-1.46,0-2.88-.21-4.24-.6-1.49,4.88-4.74,9.01-9.57,11.98l-35.82,21.94c-2.73,1.67-5.56,2.61-8.4,2.79-.33.02-.65.03-.98.03-1.46,0-2.88-.21-4.24-.6-1.49,4.88-4.74,9.01-9.57,11.98l-35.82,21.94c-2.73,1.67-5.56,2.61-8.4,2.79-.29.02-.57.03-.85.03-.2,0-.41,0-.61-.01-1.36,2.91-3.58,5.42-6.55,7.24l-38.82,23.78c-2.78,1.7-5.64,2.66-8.51,2.84-.33.02-.66.03-.99.03-5.48,0-10.48-2.88-13.52-7.84-1.14-1.86-1.95-4-2.47-6.52l-5.23-25.57c-2-9.9,1.65-18.49,9.98-23.59l34.3-21.01c2.23-1.37,4.6-2.14,7.02-2.29.28-.02.55-.03.83-.03,1.4,0,2.76.22,4.05.62.68-1.75,1.55-3.45,2.69-5.06,1.81-2.55,3.94-4.58,6.34-6.05l35.82-21.94c2.78-1.7,5.64-2.66,8.51-2.84.33-.02.66-.03.99-.03,1.49,0,2.95.21,4.34.62.7-2.05,1.69-4.03,3.01-5.9,1.81-2.55,3.93-4.58,6.33-6.05l35.83-21.95c2.78-1.7,5.64-2.66,8.51-2.84.33-.02.66-.03.99-.03,1.11,0,2.21.12,3.27.35,1.04-3.57,3.25-6.78,6.5-9.22l.45-.34,16.89-10.34c2.21-1.35,4.55-2.12,6.96-2.27.3-.02.6-.03.89-.03m0-3h0c-.36,0-.72.01-1.08.03-2.9.18-5.71,1.09-8.34,2.71l-16.89,10.34-.12.07-.11.08-.45.34c-2.99,2.24-5.27,5.08-6.69,8.32-.43-.03-.85-.04-1.28-.04-.39,0-.78.01-1.17.04-3.36.21-6.68,1.31-9.89,3.27l-35.83,21.95c-2.75,1.69-5.18,4-7.21,6.87-.94,1.33-1.74,2.73-2.41,4.18-.82-.11-1.65-.17-2.49-.17-.39,0-.79.01-1.18.04-3.36.21-6.69,1.31-9.89,3.27l-35.82,21.94c-2.75,1.68-5.18,4-7.22,6.88-.74,1.05-1.41,2.17-2,3.34-.77-.11-1.54-.16-2.3-.16-.34,0-.67.01-1.01.03-2.92.18-5.74,1.1-8.4,2.73l-34.3,21.01c-9.47,5.8-13.61,15.55-11.36,26.74l5.23,25.58c.59,2.87,1.52,5.32,2.85,7.49,3.55,5.8,9.56,9.27,16.08,9.27.39,0,.79-.01,1.18-.04,3.36-.21,6.69-1.31,9.89-3.27l38.82-23.78c2.83-1.74,5.15-4.08,6.8-6.83,3.27-.23,6.51-1.32,9.61-3.21l35.82-21.94c4.55-2.78,7.94-6.58,9.92-11.09.77.1,1.55.15,2.33.15.39,0,.78-.01,1.16-.04,3.33-.21,6.62-1.29,9.77-3.23l35.82-21.94c4.55-2.79,7.94-6.58,9.92-11.09.77.1,1.55.15,2.33.15.39,0,.78-.01,1.16-.04,3.33-.21,6.62-1.29,9.77-3.23l30.31-18.57.12-.07.11-.08.45-.34c6.59-4.93,9.55-12.6,7.94-20.52l-1.88-9.18c-.45-2.17-1.25-4.19-2.37-6.01-3.17-5.18-8.58-8.28-14.47-8.28-.36,0-.72.01-1.08.03-1.12.07-2.23.25-3.31.54-.46-2.16-1.26-4.16-2.38-5.98-3.16-5.17-8.57-8.27-14.47-8.27h0Z"/><path class="c" d="m268.61,210.89c-5.36,0-10.29-2.82-13.18-7.54-.85-1.4-1.5-2.89-1.94-4.47-.49.08-.98.13-1.47.16-.33.02-.66.03-.99.03-5.35,0-10.27-2.81-13.15-7.51-1-1.64-1.71-3.45-2.17-5.54l-2.64-12.89c-1.67-7.97,1.57-15.54,8.46-19.76l41.77-25.58c2.42-1.48,4.99-2.32,7.65-2.49.33-.02.66-.03.98-.03,3.71,0,7.15,1.3,9.89,3.67.09-8.07,4.04-14.97,11.22-19.37l26.88-16.46c2.42-1.48,5-2.32,7.65-2.49.33-.02.66-.03.98-.03,3.43,0,6.7,1.15,9.39,3.26.77-.92,1.56-1.76,2.38-2.51-.09-6.04,2.71-11.63,7.76-15.41l.51-.38,2.06-1.26c2.42-1.48,5-2.32,7.65-2.49,1.24-1.91,2.83-3.6,4.73-5.02l.51-.39,8-4.9c2.42-1.48,4.99-2.32,7.64-2.48.31-.02.61-.03.91-.03.73,0,1.48.06,2.23.17,1.46-3.68,4.06-6.74,7.59-8.91l41.78-25.59c2.42-1.48,4.99-2.32,7.65-2.49.29-.02.58-.03.86-.03.5,0,1.01.03,1.52.08,1.5-3.35,3.99-6.15,7.23-8.14l16.42-10.05c2.42-1.48,5-2.32,7.65-2.49.33-.02.66-.03.99-.03,5.36,0,10.3,2.83,13.19,7.56,1.04,1.69,1.78,3.56,2.2,5.56l3.72,18.29c1.41,7.14-.96,13.89-6.36,18.26l.37,1.8c1.67,7.97-1.55,15.54-8.41,19.75l-6,3.67c-2.44,1.5-5.04,2.34-7.71,2.51-.33.02-.66.03-.99.03h0c-5.35,0-10.27-2.81-13.15-7.51-.62-1.01-1.13-2.1-1.54-3.28l-12.28,7.52,1.45,7.13c1.58,8.01-1.64,15.56-8.42,19.71l-4.47,2.74c-2.42,1.48-5,2.32-7.65,2.49-.32.02-.64.03-.96.03-1.95,0-3.88-.38-5.69-1.12-.86,5.23-3.9,9.75-8.55,12.6l-16.41,10.05c-2.45,1.5-5.04,2.34-7.71,2.51-.33.02-.66.03-.99.03-1.39,0-2.75-.18-4.07-.55-1.13,3.95-3.6,7.49-7.08,10.09l-.5.38-5.01,3.07c-2.42,1.48-5,2.32-7.65,2.49-.28.02-.57.03-.85.03-.18,0-.35,0-.53,0-1.54,2.93-3.88,5.4-6.81,7.2l-38.77,23.75c-2.94,1.8-6,2.81-9.08,3.01-.36.02-.72.03-1.08.03-6.01,0-11.57-3.23-14.89-8.64-.24-.39-.46-.79-.68-1.21l-11.98,7.34,1.45,7.13c1.59,8.01-1.64,15.56-8.42,19.71l-4.47,2.74c-2.42,1.48-4.99,2.32-7.65,2.49-.33.02-.66.03-.99.03Z"/><path class="d" d="m494.02,3c4.86,0,9.26,2.51,11.91,6.84.94,1.53,1.63,3.26,2.01,5.09l3.72,18.28c1.36,6.9-1.14,13.39-6.54,17.34l.56,2.72c1.54,7.32-1.42,14.3-7.73,18.16l-6,3.67c-2.23,1.37-4.59,2.14-7.02,2.29-.3.02-.6.03-.89.03-4.84,0-9.23-2.49-11.87-6.79-.88-1.43-1.51-3.03-1.93-4.86-.37.27-.75.52-1.15.76l-13.7,8.39,1.66,8.16c1.46,7.4-1.51,14.32-7.73,18.14l-4.47,2.74c-2.21,1.35-4.55,2.12-6.96,2.27-.29.02-.58.03-.87.03-2.5,0-4.87-.68-6.95-1.91-.26,5.61-3.14,10.59-8.07,13.61l-16.41,10.05c-2.24,1.37-4.6,2.14-7.02,2.29-.3.02-.6.03-.89.03-1.8,0-3.54-.35-5.15-1-.78,4.22-3.16,8.05-6.9,10.84l-.45.34-4.95,3.03c-2.22,1.36-4.56,2.12-6.96,2.27-.25.02-.51.02-.76.02-.48,0-.96-.03-1.44-.07-1.36,3.01-3.63,5.61-6.69,7.48l-38.77,23.75c-2.73,1.67-5.56,2.61-8.4,2.79-.33.02-.66.03-.99.03-5.5,0-10.53-2.91-13.61-7.92-.52-.84-.95-1.71-1.34-2.6-.2.13-.38.27-.59.39l-13.7,8.39,1.66,8.16c1.47,7.39-1.5,14.32-7.73,18.13l-4.47,2.74c-2.21,1.35-4.55,2.12-6.96,2.27-.3.02-.6.03-.89.03-4.85,0-9.25-2.51-11.91-6.83-.97-1.59-1.64-3.29-2.02-5.11l-.07-.34c-.89.23-1.78.37-2.69.43-.3.02-.6.03-.89.03-4.85,0-9.23-2.49-11.87-6.79-.91-1.49-1.56-3.15-1.98-5.07l-2.64-12.87c-1.54-7.31,1.44-14.3,7.77-18.18l41.77-25.58c2.21-1.35,4.55-2.12,6.96-2.27.3-.02.59-.03.89-.03,4.75,0,9.06,2.42,11.73,6.58-1.53-9.43,2.13-17.58,10.17-22.5l26.88-16.46c2.21-1.35,4.55-2.12,6.96-2.27.3-.02.59-.03.89-.03,3.63,0,7.01,1.41,9.59,3.93,1.16-1.56,2.39-2.91,3.71-4.03-.31-5.79,2.25-11.2,7.14-14.87l.45-.34,2-1.23c2.21-1.36,4.56-2.12,6.96-2.27.25-.02.51-.02.76-.03,1.18-2,2.78-3.8,4.77-5.29l.46-.34,7.94-4.86c2.2-1.35,4.54-2.11,6.96-2.27.27-.02.55-.03.82-.03,1.1,0,2.17.14,3.21.38,1.19-3.8,3.72-7.09,7.39-9.34l41.77-25.59c2.21-1.35,4.55-2.12,6.96-2.27.26-.02.51-.02.77-.02.84,0,1.66.08,2.47.22,1.28-3.46,3.7-6.44,7.07-8.51l16.41-10.05c2.21-1.35,4.55-2.12,6.96-2.27.3-.02.6-.03.89-.03M494.02,0c-.36,0-.72.01-1.08.03-2.9.18-5.71,1.09-8.34,2.71l-16.41,10.05c-3.2,1.96-5.71,4.65-7.36,7.86-.2,0-.41-.01-.61-.01-.32,0-.64,0-.96.03-2.9.18-5.71,1.09-8.34,2.71l-41.77,25.59c-3.47,2.13-6.11,5.06-7.75,8.57-.43-.03-.86-.05-1.29-.05-.33,0-.67.01-1,.03-2.9.18-5.71,1.09-8.34,2.7l-7.94,4.86-.12.07-.11.09-.46.34c-1.83,1.38-3.4,2.98-4.66,4.79-2.63.28-5.18,1.17-7.59,2.64l-2,1.23-.12.07-.11.08-.45.34c-5.26,3.94-8.25,9.69-8.36,15.96-.38.37-.75.75-1.12,1.15-2.71-1.79-5.87-2.75-9.16-2.75-.36,0-.72.01-1.08.03-2.9.18-5.71,1.09-8.34,2.7l-26.88,16.46c-6.81,4.17-10.88,10.45-11.76,17.84-2.54-1.53-5.47-2.36-8.57-2.36-.36,0-.72.01-1.08.03-2.91.18-5.71,1.09-8.34,2.71l-41.77,25.58c-7.45,4.56-10.95,12.74-9.14,21.36l2.63,12.86c.5,2.29,1.27,4.26,2.36,6.04,3.15,5.15,8.55,8.22,14.42,8.22.36,0,.72-.01,1.08-.03.11,0,.21-.01.32-.02.44,1.26,1.01,2.46,1.71,3.61,3.18,5.18,8.59,8.27,14.47,8.27.36,0,.72-.01,1.08-.03,2.9-.18,5.71-1.09,8.34-2.7l4.47-2.74c7.33-4.49,10.82-12.64,9.11-21.28l-1.24-6.11,9.76-5.98c3.6,5.8,9.61,9.26,16.11,9.26.39,0,.78-.01,1.17-.04,3.33-.21,6.62-1.29,9.77-3.23l38.77-23.75c2.89-1.77,5.25-4.16,6.9-6.97.2,0,.4-.01.6-.03,2.9-.18,5.71-1.09,8.34-2.7l4.95-3.03.12-.07.11-.08.45-.34c3.34-2.5,5.82-5.81,7.18-9.52,1,.19,2.03.28,3.07.28.36,0,.72-.01,1.08-.03,2.91-.18,5.74-1.1,8.4-2.73l16.41-10.05c4.51-2.77,7.62-6.98,8.89-11.9,1.48.43,3.02.65,4.57.65.35,0,.7-.01,1.06-.03,2.9-.18,5.71-1.09,8.34-2.7l4.47-2.74c7.32-4.49,10.81-12.64,9.11-21.28l-1.24-6.11,9.87-6.04c.3.65.63,1.26.99,1.86,3.15,5.15,8.55,8.22,14.42,8.22.36,0,.72-.01,1.08-.03,2.92-.18,5.74-1.1,8.4-2.73l5.99-3.67c7.42-4.55,10.91-12.72,9.1-21.34l-.19-.91c5.34-4.73,7.64-11.74,6.18-19.11l-3.73-18.29c-.46-2.18-1.26-4.22-2.4-6.06C505.32,3.09,499.92,0,494.02,0h0Z"/><path class="e" d="m54.11,284.04c1.42-.87,2.5-.71,3.24.5.25.41.43.85.53,1.32l2.57,12.76c.48,2.45-.26,4.28-2.23,5.48l-28.35,17.37c-.93.57-1.31,1.48-1.15,2.73.06.23.15.43.27.62.39.63.93.73,1.64.29l32.83-20.11c1.42-.87,2.5-.7,3.24.5.18.3.34.73.46,1.3l1.87,9.13c.51,2.43-.23,4.26-2.23,5.48l-38.82,23.77c-2.84,1.74-5,1.41-6.48-1-.4-.66-.72-1.54-.94-2.64l-5.23-25.58c-.98-4.85.51-8.5,4.48-10.93l34.3-21.01Z"/><path class="e" d="m110.86,249.28c2.84-1.74,5.01-1.41,6.48,1,.4.66.72,1.54.94,2.64l5.23,25.57c.98,4.86-.51,8.5-4.48,10.93l-35.82,21.94c-2.79,1.71-4.94,1.33-6.45-1.13-.5-.82-.84-1.65-1.01-2.48l-5.23-25.58c-.62-2.97-.04-5.71,1.73-8.23.85-1.2,1.78-2.1,2.79-2.72l35.82-21.94Zm-.04,24.63c-.06-.22-.15-.43-.27-.62-.37-.6-.9-.69-1.58-.27l-11.94,7.31c-.93.57-1.31,1.48-1.15,2.73.06.23.15.43.27.62.39.63.92.73,1.6.31l11.94-7.31c.93-.57,1.3-1.49,1.12-2.77Z"/><path class="e" d="m169.86,213.14c2.84-1.74,5.01-1.41,6.48,1,.4.66.72,1.54.94,2.64l5.23,25.57c.98,4.85-.51,8.5-4.48,10.93l-35.82,21.94c-2.79,1.71-4.94,1.33-6.45-1.13-.5-.82-.84-1.65-1.01-2.48l-5.23-25.57c-.62-2.97-.04-5.71,1.73-8.23.85-1.2,1.78-2.1,2.79-2.72l35.82-21.94Zm-.04,24.63c-.06-.22-.15-.43-.27-.62-.37-.6-.9-.69-1.58-.27l-11.94,7.31c-.93.57-1.31,1.48-1.15,2.73.06.23.15.44.27.63.39.63.92.73,1.6.32l11.94-7.31c.93-.57,1.3-1.49,1.12-2.78Z"/><path class="e" d="m213.89,210.78c.03.17.12.38.27.62.39.63.92.73,1.6.31l11.94-7.31c1.39-.85,2.47-.66,3.22.57.22.36.38.77.47,1.23l1.87,9.13c.45,2.21-.29,4.04-2.23,5.48l-29.83,18.27c-2.79,1.71-4.94,1.33-6.45-1.13-.5-.82-.84-1.65-1.01-2.48l-5.93-29.21c-.45-2.21.29-4.03,2.23-5.48l16.41-10.05c1.4-.86,2.47-.67,3.22.56.24.38.4.81.5,1.27l3.71,18.21Z"/><path class="e" d="m252.66,185c-1.42.87-2.5.71-3.24-.5-.2-.33-.36-.78-.48-1.34l-2.61-12.73c-.51-2.43.24-4.27,2.27-5.51l41.77-25.58c1.39-.86,2.47-.67,3.22.56.24.38.4.81.5,1.28l2.57,12.76c.49,2.45-.26,4.28-2.23,5.48l-19.37,11.86c-1.01.62-1.39,1.53-1.15,2.73l2.96,14.6c.49,2.45-.26,4.28-2.23,5.48l-4.47,2.74c-1.4.86-2.47.67-3.23-.56-.23-.38-.4-.81-.5-1.28l-3.01-14.58c-.05-.27-.13-.49-.23-.65-.37-.6-.91-.69-1.62-.25l-8.94,5.48Z"/><path class="e" d="m314.14,141.19l1.48-.91c1.01-.62,1.39-1.53,1.15-2.73l-1.12-5.52c-.98-4.85.51-8.5,4.48-10.93l26.88-16.46c1.39-.85,2.47-.67,3.22.56.25.41.42.84.5,1.28l.7,3.63c.49,2.45-.26,4.28-2.23,5.48l-23.88,14.63c-.9.55-1.26,1.47-1.08,2.75.04.24.1.44.2.61.39.63.93.73,1.64.29l17.89-10.96c.71-.44,1.25-.35,1.62.25.12.19.19.41.23.65.21,1.26-.15,2.18-1.08,2.75l-25.36,15.53c-.93.57-1.31,1.48-1.15,2.73.06.23.15.43.27.62.37.6.9.69,1.58.27l34.34-21.04c1.4-.86,2.47-.67,3.22.56.24.38.4.81.5,1.28l2.24,10.93c.51,2.43-.24,4.27-2.27,5.51l-38.77,23.75c-2.79,1.71-4.94,1.33-6.45-1.13-.5-.82-.84-1.65-1.01-2.48l-2.22-11c-.98-4.85.51-8.5,4.48-10.92Z"/><path class="e" d="m412.91,79.51c.45.74.78,1.61.98,2.62l4.06,20.08c.49,2.45-.26,4.28-2.23,5.48l-16.41,10.05c-1.42.87-2.5.7-3.24-.5-.22-.35-.38-.8-.48-1.34l-1.1-5.48c-.07-.37-.25-.78-.54-1.25-.75-1.23-1.83-1.42-3.22-.56l-8.94,5.48c-1.97,1.21-2.71,3.04-2.23,5.48l1.1,5.48c.45,2.21-.29,4.04-2.23,5.48l-4.47,2.74c-1.4.85-2.47.66-3.23-.56-.23-.38-.4-.81-.5-1.28l-4.1-20.06c-.62-3.04-.06-5.78,1.69-8.2.9-1.23,1.83-2.14,2.79-2.72l2.99-1.83c1.01-.62,1.39-1.54,1.12-2.77l-.74-3.61c-.45-2.21.29-4.03,2.23-5.48l1.52-.93c1.4-.85,2.47-.66,3.22.56.24.38.4.81.5,1.28l.74,3.61c.05.27.14.5.26.69.37.6.91.68,1.62.25l4.49-2.75c.96-.59,1.33-1.5,1.09-2.74l-.7-3.63c-.43-2.23.31-4.06,2.21-5.49l7.45-4.56c1.39-.85,2.46-.66,3.22.57.23.38.4.81.5,1.28l.74,3.61c.05.27.14.5.25.69.37.6.91.69,1.62.25l1.48-.91c2.84-1.74,5.01-1.41,6.48,1Z"/><path class="e" d="m421.06,81.85c-1.42.87-2.5.71-3.24-.5-.2-.33-.36-.78-.48-1.34l-2.61-12.74c-.51-2.43.24-4.27,2.27-5.51l41.77-25.58c1.39-.85,2.47-.67,3.22.56.24.38.4.81.5,1.28l2.57,12.76c.48,2.45-.26,4.28-2.23,5.48l-19.37,11.86c-1.01.62-1.4,1.53-1.15,2.73l2.97,14.6c.48,2.45-.26,4.28-2.23,5.48l-4.47,2.74c-1.4.86-2.47.67-3.22-.56-.24-.38-.4-.81-.5-1.27l-3.01-14.58c-.05-.27-.13-.49-.23-.65-.37-.6-.91-.68-1.62-.25l-8.94,5.48Z"/><path class="e" d="m496.17,17.39l3.71,18.21c.48,2.45-.27,4.29-2.27,5.51l-16.41,10.05c-1.42.87-2.5.71-3.24-.5-.22-.35-.38-.8-.48-1.34l-3.71-18.21c-.48-2.45.27-4.29,2.27-5.51l16.41-10.05c1.4-.86,2.47-.67,3.22.56.24.38.4.81.5,1.27Zm-3.02,34.69l.74,3.61c.51,2.43-.23,4.26-2.23,5.48l-5.99,3.67c-1.42.87-2.5.71-3.24-.5-.2-.33-.36-.78-.48-1.34l-.74-3.61c-.51-2.43.23-4.26,2.23-5.48l5.99-3.67c1.39-.85,2.47-.67,3.22.57.24.38.4.81.5,1.27Z"/><line class="b" x1="238.78" y1="208.64" x2="231.15" y2="208.15"/><line class="b" x1="239.97" y1="181.29" x2="232.34" y2="181.78"/><line class="b" x1="258.01" y1="200.51" x2="257.52" y2="208.15"/><line class="b" x1="231.15" y1="208.15" x2="230.66" y2="200.51"/><line class="b" x1="258.72" y1="181.85" x2="249.89" y2="181.29"/><line class="b" x1="257.52" y1="208.15" x2="249.89" y2="208.64"/></svg>