<?xml version="1.0" encoding="UTF-8"?><svg id="a" xmlns="http://www.w3.org/2000/svg" viewBox="0 0 331.23 331.57"><defs><style>.b{fill:#555;stroke-width:0px;}</style></defs><path class="b" d="m47.92,159.32c60.33-3.84,108.4-51.91,112.24-112.24l2.77-43.61c.29-4.63,7.11-4.63,7.4,0l2.78,43.68c3.84,60.33,51.91,108.4,112.24,112.24l42.4,2.7c4.63.29,4.63,7.11,0,7.4l-43.61,2.77c-60.33,3.84-108.4,51.91-112.24,112.24l-2.77,43.6c-.29,4.63-7.11,4.63-7.4,0l-2.77-43.59c-3.84-60.33-51.91-108.4-112.24-112.24l-43.26-2.75c-4.63-.29-4.63-7.11,0-7.4l44.44-2.79Z"/></svg>