<?xml version="1.0" encoding="UTF-8"?>
<svg id="Layer_1" data-name="Layer 1" xmlns="http://www.w3.org/2000/svg" viewBox="0 0 737.89 296.2">
  <defs>
    <style>
      .cls-1 {
        fill: #58595b;
      }

      .cls-1, .cls-2, .cls-3 {
        stroke-width: 0px;
      }

      .cls-2 {
        fill: #ddd;
      }

      .cls-3 {
        fill: #fff;
      }

      .cls-4 {
        fill: none;
        stroke: #58595b;
        stroke-miterlimit: 10;
        stroke-width: 2px;
      }
    </style>
  </defs>
  <path class="cls-4" d="m599.77,292.68c-5.37,0-10.38-1.16-14.67-3.38-3.49,1.8-7.36,2.91-11.55,3.3l-.92.09h-64.32c-17.01,0-28.89-11.45-28.89-27.85,0-2.47.25-4.89.74-7.21-1.12.12-2.25.18-3.41.18h-30.37l-5.59,15.36c-4.52,12.23-14.77,19.52-27.42,19.52h-9.5c-13.94,0-24.45-10.29-24.45-23.92,0-3.12.54-6.21,1.61-9.19l.88-2.43c-2.55-.58-4.94-1.52-7.12-2.82-4.19,2.29-8.96,3.49-14,3.49h-30.38l-5.59,15.36c-4.53,12.23-14.78,19.52-27.42,19.52h-9.51c-13.94,0-24.45-10.29-24.45-23.92,0-1.02.06-2.03.17-3.04l-2.71,7.44c-4.52,12.23-14.77,19.52-27.42,19.52h-34.88c-9.28,0-17.05-4.51-21.22-11.52-5.38,7.34-13.58,11.52-23.16,11.52h-9.51c-6.59,0-12.54-2.23-16.96-6.24-1.81,1.16-3.74,2.18-5.75,3.04-4.95,2.12-9.93,3.2-14.79,3.2H31.07c-17.01,0-28.89-11.45-28.89-27.85,0-4.05.66-7.95,1.97-11.57l16.15-44.52c.76-2.12,1.68-4.14,2.75-6.05-12.12-1.62-20.87-11.22-20.87-23.6,0-3.14.59-6.32,1.76-9.46,0,0,20.74-56.98,20.75-57.01-15.41-2.78-22.51-15.34-22.51-27.11,0-3.78.74-7.64,2.25-11.81L22.82,22.98C27.11,10.93,37.62,3.43,50.25,3.43h34.88c9.29,0,17.06,4.52,21.24,11.54,4.91-6.56,12.33-10.62,21.29-11.45l.93-.09h10.44c8.11,0,15.09,3.38,19.5,9.05,4.88-5.08,11.46-8.24,18.97-8.96l.95-.09h32.61c13.94,0,24.45,10.29,24.45,23.92,0,3.32-.52,6.44-1.56,9.28l-18.49,50.75c-.75,2.03-1.61,3.96-2.59,5.78h46.15c10.37,0,18.97,4.25,24.02,11.49,3.44-3.48,7.55-6.26,12.28-8.3,4.95-2.12,9.96-3.2,14.88-3.2h76.04c10.05,0,18.2,3.68,23.34,10.32,6.86-6.71,15.95-10.32,26.27-10.32h72.9c13.99,0,24.53,10.25,24.53,23.84,0,1-.05,1.99-.16,2.98.96-.27,1.94-.5,2.93-.69l.11-.31c6-16.4,19.14-25.81,36.06-25.81h57.12c13.94,0,24.45,10.29,24.45,23.92,0,3.29-.58,6.5-1.73,9.52l-2.33,6.22c-1.47,3.98-3.64,7.53-6.38,10.45,1.94,3.51,2.94,7.52,2.94,11.82,0,3.1-.54,6.19-1.6,9.16,0,0-6.93,19.11-6.93,19.12,2.07-.31,4.2-.47,6.4-.47h57.11c13.94,0,24.45,10.29,24.45,23.92,0,3.3-.58,6.5-1.73,9.52l-2.33,6.22c-1.47,3.98-3.64,7.53-6.38,10.45,1.93,3.51,2.94,7.52,2.94,11.82,0,3.1-.54,6.19-1.6,9.16l-6.92,19.11c-4.3,12.05-14.85,19.55-27.52,19.55h-82.4Zm-17.7-68.51c.93,0,1.85.05,2.78.15,5.55-8.09,13.59-13.4,23.13-15.27l.11-.31c.75-2.04,1.6-3.98,2.57-5.8-.14,0-24.32,0-24.32,0,.2,1.27.29,2.58.29,3.91,0,3.11-.54,6.2-1.6,9.18l-2.96,8.14Zm-456.48-22.24c8.23,0,15.5,2.73,20.68,7.63,4.12-3.21,8.85-5.44,14.05-6.63h-9.09c-11.3,0-20.35-6.69-23.42-16.42-2.04,3.04-4.44,5.72-7.13,7.98,1.7,2.24,3.04,4.74,3.99,7.44h.92Zm28.54-88.74c1.13,1.15,2.14,2.41,3,3.77,3.03-1.71,6.31-2.97,9.78-3.77h-12.77Z"/>
  <g>
    <path class="cls-1" d="m599.77,289.68c-5.48,0-10.52-1.32-14.66-3.82-3.49,2.08-7.47,3.33-11.84,3.74l-.79.07h-64.18c-15.49,0-25.89-9.99-25.89-24.85,0-3.7.6-7.26,1.79-10.56l.2-.56c-2.43.72-4.99,1.09-7.66,1.09h-32.47l-6.31,17.33c-4.07,10.99-13.26,17.55-24.61,17.55h-9.5c-12.43,0-21.45-8.8-21.45-20.92,0-2.77.48-5.52,1.43-8.18l2.11-5.86c-4.15-.33-7.93-1.67-11.1-3.94-4.09,2.64-8.93,4.02-14.07,4.02h-32.47l-6.31,17.33c-4.07,10.99-13.26,17.55-24.61,17.55h-9.5c-12.43,0-21.45-8.8-21.45-20.92,0-2.77.48-5.52,1.43-8.18l2.11-5.86c-1.79-.15-3.53-.49-5.19-1.01l-6.71,18.43c-4.06,10.99-13.26,17.55-24.6,17.55h-34.88c-10.4,0-18.42-6.08-20.8-15.09-4.47,9.51-13.11,15.09-23.58,15.09h-9.5c-6.69,0-12.62-2.58-16.58-7.14-2.24,1.66-4.69,3.06-7.31,4.19-4.57,1.96-9.15,2.95-13.61,2.95H31.07c-15.49,0-25.89-9.99-25.89-24.85,0-3.7.6-7.26,1.79-10.56l16.15-44.51c1.3-3.61,3.09-6.9,5.34-9.83h-1.75c-12.48,0-21.53-8.76-21.53-20.84,0-2.78.53-5.61,1.57-8.42l20.72-56.95c.46-1.25,1-2.45,1.61-3.6-16.49-.96-23.9-12.83-23.9-24.61,0-3.42.68-6.95,2.07-10.78L25.64,24c3.92-11,13.12-17.57,24.61-17.57h34.88c10.39,0,18.41,6.08,20.8,15.08,4.07-8.65,11.96-14.07,22-15.01l.79-.07h10.3c8.56,0,15.69,4.26,19.17,11.15,4.49-6.32,11.43-10.29,19.58-11.07l.81-.08h32.47c12.43,0,21.45,8.8,21.45,20.92,0,2.97-.46,5.75-1.37,8.25l-18.49,50.75c-1.33,3.64-3.08,6.93-5.22,9.81h51.59c10.85,0,19.53,5.12,23.51,13.61,3.64-4.65,8.33-8.22,13.98-10.65,4.57-1.96,9.18-2.95,13.7-2.95h76.04c10.48,0,18.66,4.4,22.94,12.19,6.5-7.89,15.85-12.19,26.67-12.19h72.9c12.48,0,21.53,8.76,21.53,20.84,0,2.61-.41,5.17-1.22,7.64,2.87-1.31,5.95-2.21,9.21-2.69l.71-1.95c5.54-15.15,17.65-23.83,33.24-23.83h57.11c12.43,0,21.45,8.8,21.45,20.92,0,2.93-.52,5.78-1.54,8.46l-2.34,6.23c-1.62,4.38-4.16,8.16-7.39,11.05,2.47,3.48,3.77,7.68,3.77,12.28,0,2.76-.48,5.5-1.42,8.15l-6.92,19.09c-.69,1.94-1.55,3.75-2.56,5.41,3.63-1.22,7.58-1.85,11.78-1.85h57.11c12.43,0,21.45,8.8,21.45,20.92,0,2.93-.52,5.78-1.54,8.46l-2.34,6.23c-1.62,4.38-4.16,8.16-7.39,11.05,2.47,3.48,3.77,7.68,3.77,12.28,0,2.76-.48,5.5-1.42,8.15l-6.92,19.09c-3.92,11-13.16,17.57-24.7,17.57h-82.4Zm-17.7-62.51c1.42,0,2.84.13,4.25.38,5.42-8.78,13.81-14.35,23.88-15.84l.71-1.95c1.45-3.96,3.35-7.48,5.64-10.52-2.01.46-4.12.7-6.32.7h-27.68c.72,2.18,1.08,4.49,1.08,6.91,0,2.77-.48,5.52-1.43,8.17l-4.42,12.15h4.28Zm-456.47-22.24c8.62,0,15.79,3.09,20.45,8.76,5.68-5.22,12.87-8.2,21.01-8.69l.52-1.44c.69-1.89,1.54-3.65,2.54-5.27-2.89,1.08-6.04,1.65-9.38,1.65h-9.5c-12.18,0-21.1-8.35-21.52-19.98-.6.17-1.21.32-1.82.44-2.83,5.75-6.71,10.32-11.56,13.65,2.94,3,5.02,6.71,6.12,10.89h3.14Zm58.73-20.1c-.5,1.06-1.05,2.08-1.65,3.04.78-.3,1.57-.57,2.39-.8-.29-.73-.54-1.48-.74-2.24Zm127.55,1.09c-.12-.36-.23-.73-.33-1.1-.17.37-.36.74-.55,1.1h.88Zm-162.47-72.85c2.93,2.12,5.18,4.89,6.6,8.13,5.05-3.52,11.06-5.55,17.59-5.95l.52-1.44c.46-1.26.99-2.47,1.6-3.62h-21.7c-1.93,0-3.79-.21-5.56-.63.41,1.13.73,2.3.94,3.51Zm4.46-63.08c.14-.06.28-.12.42-.18.86-.36,1.73-.68,2.6-.96-.63-.76-1.21-1.58-1.72-2.43l-1.3,3.57Z"/>
    <path class="cls-2" d="m211.04,8.43c11.27,0,19.45,7.96,19.45,18.92,0,2.74-.42,5.28-1.25,7.57l-18.49,50.75c-1.78,4.86-4.33,9.06-7.64,12.5h55.89c11.69,0,20.24,6.15,22.96,15.87,3.62-5.83,8.82-10.29,15.31-13.08,4.33-1.85,8.66-2.79,12.91-2.79h76.04c12.32,0,19.59,6.25,22.53,14.08,6.1-9.05,15.58-14.08,27.08-14.08h72.9c11.32,0,19.53,7.92,19.53,18.84,0,2.59-.44,5.13-1.31,7.57l-1.63,4.45c4.17-2.84,9.02-4.64,14.4-5.25l1.12-3.09c5.23-14.32,16.66-22.52,31.36-22.52h57.11c11.27,0,19.45,7.96,19.45,18.92,0,2.69-.47,5.29-1.41,7.75l-2.34,6.24c-1.78,4.81-4.65,8.7-8.3,11.45,2.88,3.27,4.55,7.62,4.55,12.58,0,2.53-.44,5.05-1.31,7.48l-6.92,19.08c-3.62,10.15-12.16,16.25-22.82,16.25h-30.68c1.33,2.61,2.08,5.62,2.08,8.91,0,2.54-.44,5.06-1.31,7.49l-5.39,14.83h7.14c1.84,0,3.59.23,5.24.64,5.28-9.34,13.8-15.07,24.35-16.27l1.12-3.09c5.23-14.32,16.66-22.52,31.36-22.52h57.11c11.27,0,19.45,7.96,19.45,18.92,0,2.69-.47,5.29-1.41,7.75l-2.34,6.24c-1.78,4.81-4.65,8.7-8.3,11.45,2.88,3.27,4.55,7.62,4.55,12.58,0,2.53-.44,5.05-1.31,7.48l-6.92,19.08c-3.62,10.15-12.16,16.25-22.82,16.25h-82.4c-5.76,0-10.74-1.51-14.65-4.19-3.42,2.27-7.48,3.7-12.03,4.12l-.69.06h-64.09c-14.29,0-23.89-9.18-23.89-22.85,0-3.47.56-6.8,1.67-9.88l1.73-4.75c-3.29,1.69-7.03,2.6-11.07,2.6h-33.87l-6.79,18.65c-3.77,10.19-12.26,16.23-22.73,16.23h-9.5c-11.27,0-19.45-7.96-19.45-18.92,0-2.54.44-5.07,1.32-7.5l3.05-8.45h-.79c-5.17,0-9.67-1.67-13.06-4.5-3.95,2.91-8.78,4.5-14.14,4.5h-33.87l-6.79,18.65c-3.77,10.19-12.26,16.23-22.73,16.23h-9.5c-11.27,0-19.45-7.96-19.45-18.92,0-2.54.44-5.07,1.32-7.5l3.05-8.45h-.79c-3.07,0-5.9-.6-8.41-1.67l-7.4,20.32c-3.77,10.19-12.25,16.23-22.73,16.23h-34.88c-11.32,0-19.53-7.92-19.53-18.84,0-1.56.19-3.15.55-4.74l-2.68,7.34c-3.77,10.19-12.26,16.23-22.73,16.23h-9.5c-7.01,0-12.82-3.04-16.24-7.95-2.49,2.08-5.31,3.82-8.44,5.16-4.33,1.85-8.63,2.79-12.82,2.79H31.07c-14.29,0-23.89-9.18-23.89-22.85,0-3.47.56-6.8,1.67-9.88l16.14-44.5c1.74-4.85,4.41-9.05,7.88-12.51h-6.16c-11.32,0-19.53-7.92-19.53-18.84,0-2.54.49-5.14,1.45-7.72l20.73-56.96c.85-2.3,1.95-4.37,3.25-6.23h-1.35c-16.63,0-24.07-11.39-24.07-22.67,0-3.19.64-6.49,1.95-10.1L27.52,24.69c3.61-10.15,12.12-16.25,22.73-16.25h34.88c11.32,0,19.53,7.92,19.53,18.84,0,1.49-.15,3-.46,4.49l2.58-7.09c3.39-9.32,11.17-15.22,21.33-16.17l.7-.06h10.2c9.38,0,16.6,5.53,18.76,13.7,3.92-7.85,11.14-12.77,20.17-13.63l.71-.07h32.37m-60.95,46.03c1.52-1.11,3.17-2.06,4.96-2.81,1.9-.81,3.83-1.37,5.77-1.69-2.77-2.27-4.8-5.32-5.84-8.91l-4.89,13.41m-11.99,46.08c-1.54-2.12-2.64-4.6-3.17-7.36-1.24,1.87-2.65,3.58-4.22,5.14,2.71.29,5.2,1.06,7.39,2.22m16.93,23.9c5.42-4.52,12.22-7.06,19.98-7.25l.97-2.71c.84-2.32,1.96-4.43,3.31-6.3h-25.28c-3.64,0-6.95-.84-9.78-2.34,1.73,2.38,2.89,5.21,3.32,8.37,3.66,2.41,6.29,5.97,7.49,10.22m-3.82,73.48c-11.32,0-19.53-7.92-19.53-18.84,0-.65.04-1.31.1-1.97-1.66.68-3.42,1.19-5.27,1.48-3.11,6.73-7.74,11.85-13.49,15.13,4.28,3.48,6.84,8.19,7.82,13.19h4.73c9.02,0,16.17,3.67,20.21,9.8,5.78-6.12,13.57-9.56,22.68-9.79l.97-2.71c3.08-8.46,9.71-14.07,18.46-15.8-1.49-2.71-2.33-5.87-2.33-9.33,0-1.56.19-3.15.55-4.74l-2.68,7.34c-3.77,10.19-12.26,16.23-22.73,16.23h-9.5m156.19-10.01h7.45c-1.32-2.59-2.07-5.57-2.07-8.82,0-1.56.18-3.14.55-4.73l-2.67,7.34c-.83,2.29-1.93,4.36-3.26,6.22m79.03,4.47c1.48-1.08,3.08-1.98,4.8-2.68-1.15-1.43-2.08-2.99-2.81-4.64-1.14,2.18-2.54,4.1-4.14,5.77.76.47,1.47.99,2.15,1.55m-124.46-2.9c-.61-.94-1.14-1.95-1.57-3.01-.45.75-.93,1.47-1.44,2.16,1.04.23,2.05.51,3.02.85m245.26,9.32c1.42-2.17,3.14-4.06,5.13-5.62-.88-.66-1.68-1.39-2.43-2.17-1.51,1.54-3.21,2.84-5.07,3.89.95,1.18,1.74,2.49,2.37,3.91M211.04,4.43h-32.56l-.19.02-.71.07c-7.68.74-14.37,4.12-19.15,9.54-4.16-6.02-11.18-9.63-19.41-9.63h-10.39l-.19.02-.7.06c-9.22.86-16.74,5.25-21.47,12.32-1.1-2.21-2.56-4.22-4.36-5.96-4.31-4.16-10.27-6.45-16.79-6.45h-34.88c-12.38,0-22.29,7.07-26.5,18.91L5.36,74.05c-1.47,4.05-2.19,7.8-2.19,11.46,0,11.64,7.2,24.08,22.89,26.32-.16.39-.32.79-.47,1.2l-20.74,56.98c-1.12,3-1.69,6.07-1.69,9.09,0,6.38,2.4,12.2,6.74,16.39,3.86,3.73,9.05,5.95,14.78,6.37-1.39,2.25-2.55,4.67-3.47,7.24l-16.14,44.49c-1.27,3.53-1.91,7.31-1.91,11.24,0,15.81,11.47,26.85,27.89,26.85h76.12c4.73,0,9.57-1.05,14.39-3.11,2.21-.95,4.3-2.09,6.26-3.39,4.29,4.18,10.23,6.51,16.85,6.51h9.5c9.79,0,18.08-4.52,23.24-12.39,1.1,2.21,2.56,4.21,4.35,5.94,4.31,4.16,10.27,6.45,16.79,6.45h34.88c12.22,0,22.11-7.04,26.48-18.84l6.09-16.71c.4.09.81.18,1.22.25l-1.27,3.52c-1.03,2.88-1.55,5.86-1.55,8.86,0,6.39,2.38,12.23,6.71,16.44,4.3,4.18,10.24,6.48,16.74,6.48h9.5c12.21,0,22.11-7.04,26.48-18.84l5.84-16.03h31.07c5.07,0,9.86-1.25,14.02-3.65,2.53,1.6,5.37,2.68,8.43,3.23l-1.27,3.51c-1.03,2.88-1.55,5.86-1.55,8.86,0,6.39,2.38,12.23,6.71,16.44,4.3,4.18,10.24,6.48,16.74,6.48h9.5c12.21,0,22.11-7.04,26.48-18.84l5.84-16.03h31.07c1.61,0,3.18-.12,4.71-.37-.69,2.69-1.04,5.5-1.04,8.4,0,15.81,11.47,26.85,27.89,26.85h64.28l.19-.02.69-.06c4.25-.4,8.15-1.55,11.65-3.43,4.25,2.31,9.26,3.51,14.67,3.51h82.4c12.43,0,22.37-7.07,26.59-18.91l6.91-19.06c1.03-2.88,1.55-5.85,1.55-8.84,0-4.4-1.09-8.47-3.18-11.98,2.89-2.92,5.17-6.55,6.69-10.67l2.33-6.22c1.1-2.89,1.66-5.98,1.66-9.15,0-6.39-2.38-12.23-6.71-16.44-4.3-4.18-10.24-6.48-16.74-6.48h-57.11c-2.77,0-5.43.26-7.97.76.23-.54.44-1.1.64-1.66l6.91-19.06c1.03-2.88,1.55-5.85,1.55-8.84,0-4.4-1.09-8.47-3.18-11.98,2.89-2.92,5.17-6.55,6.69-10.67l2.33-6.22c1.1-2.89,1.66-5.98,1.66-9.15,0-6.39-2.38-12.23-6.71-16.44-4.3-4.18-10.24-6.48-16.74-6.48h-57.11c-16.48,0-29.28,9.16-35.12,25.14l-.31.86c-1.67.3-3.3.71-4.88,1.22.24-1.45.36-2.91.36-4.38,0-6.37-2.4-12.2-6.75-16.39-4.31-4.16-10.27-6.45-16.79-6.45h-72.9c-10.46,0-19.63,3.81-26.39,10.86-4.9-6.98-13.06-10.86-23.23-10.86h-76.04c-4.79,0-9.66,1.05-14.48,3.11-5.01,2.16-9.3,5.16-12.83,8.98-4.76-7.6-13.37-12.09-23.87-12.09h-47.86c1.31-2.2,2.44-4.58,3.37-7.12l18.49-50.76c.99-2.73,1.5-5.74,1.5-8.94,0-6.39-2.38-12.23-6.71-16.44-4.3-4.18-10.24-6.48-16.74-6.48h0Zm-54.26,113.88c-1.37-2.4-3.19-4.5-5.4-6.25.86.08,1.74.13,2.63.13h18.57c-.12.31-.24.62-.36.93l-.09.24c-5.59.52-10.8,2.21-15.37,4.95h0Zm-37.5,76.02c3.5-2.77,6.51-6.25,8.91-10.3.91,4.41,3.05,8.37,6.25,11.45,4.31,4.16,10.27,6.45,16.79,6.45h9.5c1.9,0,3.75-.17,5.53-.5-.2.47-.39.95-.56,1.44l-.09.24c-7.37.68-13.97,3.34-19.4,7.79-5.03-5.11-12.31-7.97-20.62-7.97h-1.64c-1.03-3.18-2.6-6.07-4.67-8.59h0Zm465.86,7.6h25.09c.73,0,1.45-.02,2.16-.07-1.29,2.22-2.42,4.62-3.36,7.2l-.31.86c-9.71,1.75-17.87,7.14-23.38,15.45-1.09-.14-2.18-.21-3.27-.21h-1.43l3.44-9.46c1.03-2.89,1.55-5.86,1.55-8.86,0-1.68-.16-3.32-.49-4.91h0Z"/>
  </g>
  <path class="cls-3" d="m31.63,93.19c-6.05,0-9.07-2.56-9.07-7.67,0-1.4.35-3.05,1.05-4.97l18.4-50.75c1.51-4.24,4.39-6.37,8.63-6.37h34.88c3.02,0,4.53,1.28,4.53,3.84,0,.81-.15,1.66-.44,2.53l-10.38,28.51c-.29.81-.44,1.63-.44,2.44,0,2.62,1.48,3.92,4.45,3.92h19.01c4.19,0,7.06-2.12,8.63-6.37l10.38-28.51c1.39-3.84,4.27-5.96,8.63-6.37h9.5c2.96,0,4.45,1.31,4.45,3.92,0,.99-.12,1.8-.35,2.44l-18.49,50.75c-1.92,5.23-5.38,8.92-10.38,11.07-2.44,1.05-4.74,1.57-6.89,1.57H31.63Z"/>
  <path class="cls-1" d="m192.6,105.4c-4.33,1.85-8.63,2.79-12.82,2.79"/>
  <path class="cls-3" d="m188.68,42.44c.17-.46.26-.87.26-1.22,0-1.28-.76-1.92-2.27-1.92h-12.64c-2.96,0-4.45-1.31-4.45-3.92,0-.81.12-1.63.35-2.44l1.22-3.14c1.51-3.84,4.39-5.96,8.63-6.37h31.65c2.96,0,4.45,1.31,4.45,3.92,0,.99-.12,1.8-.35,2.44l-18.49,50.75c-1.92,5.23-5.38,8.92-10.38,11.07-2.44,1.05-4.74,1.57-6.89,1.57h-25.37c-2.96,0-4.45-1.31-4.45-3.92,0-.81.14-1.63.44-2.44l5.75-15.87c.93-2.62,2.64-4.45,5.14-5.49,1.22-.52,2.38-.79,3.49-.79h12.64c2.15,0,3.6-1.07,4.36-3.23l6.89-19.01Z"/>
  <path class="cls-3" d="m136.62,125.82c-2.97,0-4.45-1.27-4.45-3.83,0-.82.14-1.63.42-2.45.36-.93.54-1.77.54-2.53,0-2.55-1.51-3.83-4.53-3.83H52.48c-4.19,0-7.07,2.12-8.64,6.37l-20.75,57.02c-.35.93-.52,1.78-.52,2.53,0,2.56,1.51,3.84,4.53,3.84h69.78c8.43,0,14.18-4.21,17.26-12.64l.09-.25c1.47-3.8,4.34-5.84,8.62-6.12,4.18,0,7.06-2.12,8.63-6.37l9.24-25.37c.29-.87.44-1.68.44-2.44,0-2.38-1.52-3.69-4.54-3.93Zm-23.89,22.2c-.93,2.12-2.38,3.18-4.36,3.18h-25.37c-1.46,0-2.18-.65-2.18-1.95,0-.41.05-.82.17-1.23.93-2.12,2.38-3.19,4.36-3.19h25.38c1.45,0,2.17.65,2.17,1.95,0,.41-.05.83-.17,1.24Z"/>
  <path class="cls-3" d="m249.02,176.57c-1.57,4.24-4.45,6.37-8.63,6.37h-34.88c-3.02,0-4.53-1.28-4.53-3.84,0-.75.17-1.6.52-2.53l9.24-25.37c.12-.29.17-.7.17-1.22,0-1.28-.73-1.92-2.18-1.92h-25.37c-2.15,0-3.61,1.05-4.36,3.14l-9.24,25.37c-1.57,4.24-4.45,6.37-8.63,6.37h-9.5c-3.02,0-4.53-1.28-4.53-3.84,0-.75.17-1.6.52-2.53l11.51-31.65c3.08-8.49,8.84-12.73,17.27-12.73h6.37c2.15,0,3.6-1.05,4.36-3.14l3.4-9.5c1.39-3.84,4.3-5.96,8.72-6.37h60.17c5.93,0,8.89,2.62,8.89,7.85,0,1.74-.26,3.34-.79,4.8l-18.49,50.75Zm-34.53-44.38c1.92,0,3.34-1.05,4.27-3.14.17-.41.26-.81.26-1.22,0-1.34-.76-2.01-2.27-2.01h-19.01c-1.98,0-3.43,1.08-4.36,3.23-.12.41-.17.81-.17,1.22,0,1.28.75,1.92,2.27,1.92h19.01Z"/>
  <path class="cls-3" d="m386.61,113.18c6.04,0,9.07,2.56,9.07,7.67,0,1.57-.32,3.23-.96,4.97l-18.49,50.75c-1.57,4.24-4.45,6.37-8.63,6.37h-34.88c-3.02,0-4.53-1.28-4.53-3.84,0-.75.17-1.6.52-2.53l15-41.16c.23-.64.35-1.45.35-2.44,0-2.62-1.48-3.92-4.45-3.92h-19.01c-4.19,0-7.06,2.12-8.63,6.37l-15,41.16c-1.39,3.84-4.27,5.96-8.63,6.37h-9.5c-2.96,0-4.45-1.31-4.45-3.92,0-.81.14-1.63.44-2.44l18.4-50.75c1.92-5.23,5.38-8.92,10.38-11.07,2.44-1.05,4.77-1.57,6.98-1.57h76.04Z"/>
  <path class="cls-3" d="m509.12,113.18c3.02,0,4.53,1.28,4.53,3.84,0,.87-.15,1.72-.44,2.53l-8.11,22.15c-1.57,4.24-4.45,6.37-8.63,6.37h-60.25c-1.98,0-3.43,1.05-4.36,3.14-.12.41-.17.81-.17,1.22,0,1.34.75,2.01,2.27,2.01h69.76c3.02,0,4.53,1.28,4.53,3.84,0,.64-.17,1.45-.52,2.44l-5.75,15.87c-1.51,4.24-4.39,6.37-8.63,6.37h-82.49c-6.05,0-9.07-2.56-9.07-7.67,0-1.4.35-3.05,1.05-4.97l16.13-44.47c3.08-8.43,8.84-12.64,17.27-12.64h72.9Z"/>
  <path class="cls-3" d="m544.35,138.55h3.14c2.15,0,3.6-1.05,4.36-3.14l3.49-9.59c3.08-8.43,8.84-12.64,17.27-12.64h57.11c2.96,0,4.45,1.31,4.45,3.92,0,.87-.15,1.69-.44,2.44l-2.35,6.28c-1.57,4.24-4.45,6.37-8.63,6.37h-50.75c-1.92,0-3.34,1.08-4.27,3.23-.17.41-.26.78-.26,1.13,0,1.34.75,2.01,2.27,2.01h38.02c1.51,0,2.27.64,2.27,1.92,0,.41-.09.81-.26,1.22-.87,2.15-2.3,3.23-4.27,3.23h-53.89c-1.98,0-3.43,1.05-4.36,3.14-.12.41-.17.81-.17,1.22,0,1.28.73,1.92,2.18,1.92h72.98c2.96,0,4.45,1.31,4.45,3.92,0,.81-.15,1.63-.44,2.44l-6.89,19.01c-1.51,4.24-4.42,6.37-8.72,6.37h-82.4c-5.93,0-8.89-2.62-8.89-7.85,0-1.74.26-3.34.79-4.8l6.98-19.1c3.08-8.43,8.84-12.64,17.27-12.64Z"/>
  <path class="cls-3" d="m134.88,229.78c0,1.8-.26,3.43-.79,4.88l-9.24,25.37c-1.92,5.23-5.38,8.92-10.38,11.07-2.44,1.05-4.74,1.57-6.89,1.57H31.46c-5.93,0-8.89-2.62-8.89-7.85,0-1.74.26-3.34.79-4.8l16.13-44.47c1.86-5.17,5.35-8.86,10.46-11.07,2.44-1.05,4.74-1.57,6.89-1.57h38.02c7.9,0,11.86,2.94,11.86,8.81,0,1.4-.2,2.67-.61,3.84l-1.13,3.23c-.17.52-.26.93-.26,1.22,0,1.28.75,1.92,2.27,1.92h19.01c5.93,0,8.89,2.62,8.89,7.85Zm-74.55-9.77c0,1.28.75,1.92,2.27,1.92h25.38c1.98,0,3.4-1.05,4.27-3.14.17-.41.26-.81.26-1.22,0-1.34-.76-2.01-2.27-2.01h-25.37c-1.92,0-3.34,1.08-4.27,3.23-.17.41-.26.81-.26,1.22Zm49.27,20.93c.12-.41.17-.81.17-1.22,0-1.28-.73-1.92-2.18-1.92h-25.37c-1.98,0-3.43,1.05-4.36,3.14-.12.41-.17.81-.17,1.22,0,1.34.73,2.01,2.18,2.01h25.37c1.98,0,3.43-1.07,4.36-3.23Z"/>
  <path class="cls-3" d="m242.48,266.31c-1.57,4.24-4.45,6.37-8.63,6.37h-34.88c-3.02,0-4.53-1.28-4.53-3.84,0-.75.17-1.6.52-2.53l9.24-25.37c.12-.29.17-.7.17-1.22,0-1.28-.73-1.92-2.18-1.92h-25.37c-2.15,0-3.61,1.05-4.36,3.14l-9.24,25.37c-1.57,4.24-4.45,6.37-8.63,6.37h-9.5c-3.02,0-4.53-1.28-4.53-3.84,0-.75.17-1.6.52-2.53l11.51-31.65c3.08-8.49,8.84-12.73,17.27-12.73h6.37c2.15,0,3.6-1.05,4.36-3.14l3.4-9.5c1.39-3.84,4.3-5.96,8.72-6.37h60.17c5.93,0,8.89,2.62,8.89,7.85,0,1.74-.26,3.34-.79,4.8l-18.49,50.75Zm-34.53-44.38c1.92,0,3.34-1.05,4.27-3.14.17-.41.26-.81.26-1.22,0-1.34-.76-2.01-2.27-2.01h-19.01c-1.98,0-3.43,1.08-4.36,3.23-.12.41-.17.81-.17,1.22,0,1.28.75,1.92,2.27,1.92h19.01Z"/>
  <path class="cls-3" d="m272.38,237.8c-3.02,0-4.53-1.28-4.53-3.84,0-.7.17-1.54.52-2.53l8.02-22.15c1.51-4.24,4.42-6.37,8.72-6.37h88.77c2.96,0,4.45,1.31,4.45,3.92,0,.81-.15,1.63-.44,2.44l-8.11,22.15c-1.57,4.24-4.45,6.37-8.63,6.37h-41.16c-2.15,0-3.61,1.05-4.36,3.14l-9.24,25.37c-1.57,4.24-4.45,6.37-8.63,6.37h-9.5c-2.96,0-4.45-1.31-4.45-3.92,0-.81.14-1.63.44-2.44l9.16-25.37c.17-.46.26-.87.26-1.22,0-1.28-.76-1.92-2.27-1.92h-19.01Z"/>
  <path class="cls-3" d="m388.36,237.8c-3.02,0-4.53-1.28-4.53-3.84,0-.7.17-1.54.52-2.53l8.02-22.15c1.51-4.24,4.42-6.37,8.72-6.37h88.77c2.96,0,4.45,1.31,4.45,3.92,0,.81-.15,1.63-.44,2.44l-8.11,22.15c-1.57,4.24-4.45,6.37-8.63,6.37h-41.16c-2.15,0-3.61,1.05-4.36,3.14l-9.24,25.37c-1.57,4.24-4.45,6.37-8.63,6.37h-9.5c-2.96,0-4.45-1.31-4.45-3.92,0-.81.14-1.63.44-2.44l9.16-25.37c.17-.46.26-.87.26-1.22,0-1.28-.76-1.92-2.27-1.92h-19.01Z"/>
  <path class="cls-3" d="m555.08,240.94c-.12.29-.17.7-.17,1.22,0,1.34.73,2.01,2.18,2.01h25.37c2.96,0,4.45,1.31,4.45,3.92,0,.76-.15,1.54-.44,2.35l-5.76,15.87c-1.39,3.84-4.27,5.96-8.63,6.37h-63.39c-5.93,0-8.89-2.62-8.89-7.85,0-1.74.26-3.34.79-4.8l18.49-50.75c1.4-3.84,4.27-5.96,8.63-6.37h34.88c2.96,0,4.45,1.31,4.45,3.92,0,.81-.15,1.63-.44,2.44l-11.51,31.65Z"/>
  <path class="cls-3" d="m616.29,228.3h3.14c2.15,0,3.6-1.05,4.36-3.14l3.49-9.59c3.08-8.43,8.84-12.64,17.27-12.64h57.11c2.96,0,4.45,1.31,4.45,3.92,0,.87-.15,1.69-.44,2.44l-2.35,6.28c-1.57,4.24-4.45,6.37-8.63,6.37h-50.75c-1.92,0-3.34,1.08-4.27,3.23-.17.41-.26.78-.26,1.13,0,1.34.75,2.01,2.27,2.01h38.02c1.51,0,2.27.64,2.27,1.92,0,.41-.09.81-.26,1.22-.87,2.15-2.3,3.23-4.27,3.23h-53.89c-1.98,0-3.43,1.05-4.36,3.14-.12.41-.17.81-.17,1.22,0,1.28.73,1.92,2.18,1.92h72.98c2.96,0,4.45,1.31,4.45,3.92,0,.81-.15,1.63-.44,2.44l-6.89,19.01c-1.51,4.24-4.42,6.37-8.72,6.37h-82.4c-5.93,0-8.89-2.62-8.89-7.85,0-1.74.26-3.34.79-4.8l6.98-19.1c3.08-8.43,8.84-12.64,17.27-12.64Z"/>
</svg>