<?xml version="1.0" encoding="UTF-8"?><svg id="a" xmlns="http://www.w3.org/2000/svg" viewBox="0 0 597.7 173"><defs><style>.b{fill:none;stroke:#58595b;stroke-miterlimit:10;stroke-width:4px;}.c{fill:#58595b;}.c,.d{stroke-width:0px;}.d{fill:#fff;}</style></defs><path class="b" d="m503.39,171c-7.36,0-13.73-2.99-17.98-7.86-4.94,5-11.69,7.86-19.25,7.86h-66.22c-5.85,0-11.27-1.58-15.71-4.4-4.34,2.84-9.5,4.4-15.02,4.4h-66.15c-4.24,0-8.22-.79-11.78-2.32-2.77,1.19-5.77,1.94-8.91,2.24l-.93.09h-51.82c-5.88,0-11.24-1.54-15.62-4.36-4.33,2.82-9.47,4.36-14.97,4.36h-66.15c-7.33,0-13.72-2.4-18.46-6.51-4.27,3.6-9.67,5.86-15.74,6.42l-.93.09H25.57c-13.44,0-23.57-9.95-23.57-23.15,0-2.96.51-5.89,1.52-8.71l5.55-15.33c1.11-3.06,2.7-5.85,4.68-8.28.03-3.11.63-6.23,1.82-9.52l3.24-8.9c-9.94-2.72-16.81-11.39-16.81-22.26,0-2.96.51-5.89,1.52-8.71l5.55-15.33c1.11-3.06,2.7-5.85,4.68-8.28.03-3.11.63-6.23,1.82-9.52l4.64-12.75C24.23,9.02,34.09,2,45.94,2h71.26c6.52,0,12.27,2.35,16.45,6.27,1.9-1.3,3.95-2.42,6.14-3.37,4.5-1.93,9.02-2.9,13.46-2.9h61.11c7.98,0,14.85,2.8,19.7,7.53,2.37-1.84,5-3.4,7.88-4.64,4.48-1.92,9.02-2.89,13.51-2.89h61.04c7.58,0,14.15,2.49,18.94,6.77,5.74-4.4,12.87-6.77,20.89-6.77h38.15c10.12,0,18.44,6.43,21.04,15.46,13.92,1.56,23.67,12,23.67,25.96,0,3.55-.67,7.11-2.04,10.89,0,0-7.5,20.59-7.54,20.69h49.22c3.86,0,7.51.82,10.75,2.37,3.48-1.55,7.33-2.37,11.3-2.37h71.26c13.44,0,23.57,9.95,23.57,23.15,0,2.94-.51,5.85-1.51,8.66l-6.57,17.95c-4.17,11.26-14.01,18.23-25.71,18.23h-21.62l-3.54,9.73c-4.17,11.28-14.02,18.27-25.72,18.27h-7.63Zm-206.94-72.85c0,1.04-.06,2.09-.19,3.12,1.88-1.31,3.89-2.41,6.02-3.29-.35.01-.7.02-1.05.02h-4.78v.15Z"/><path class="c" d="m572.13,85h-71.26c-4.56,0-8.57,1.57-11.63,4.37-2.44-2.72-6.1-4.37-10.42-4.37h-58.52c-10.19,0-18,5.06-22.25,14.32.03-.39.05-.77.05-1.17,0-4.22-1.76-7.8-4.66-10.15h3.62c11.05,0,19.31-5.94,23.26-16.73l7.42-20.38c.97-2.67,1.44-5.11,1.44-7.48,0-11.16-8.71-16.16-17.35-16.16h-6.05c.39-1.24.58-2.49.58-3.72,0-6.58-5.11-11.54-11.89-11.54h-38.15c-10.48,0-18.44,5.34-22.6,15.1-.54-10.41-8.91-15.1-17.23-15.1h-61.04c-3.13,0-6.33.7-9.55,2.07-6.52,2.81-11.28,7.87-13.78,14.67l-.66,1.83c.11-.82.19-1.62.19-2.41,0-11.16-8.68-16.16-17.28-16.16h-61.11c-3.08,0-6.27.7-9.5,2.08-6.04,2.61-10.53,7.07-13.11,12.91.07-.61.12-1.23.12-1.84,0-7.62-5.71-13.15-13.57-13.15H45.94c-7.61,0-13.72,4.39-16.33,11.68l-4.63,12.73c-.82,2.28-1.22,4.37-1.22,6.4,0,1.22.13,2.38.37,3.49-2.52,1.97-4.46,4.66-5.65,7.93l-5.54,15.29c-.62,1.73-.94,3.53-.94,5.33,0,7.62,5.71,13.15,13.57,13.15h10.49c-2.88,2.01-5.12,4.97-6.44,8.68l-4.63,12.73c-.82,2.28-1.22,4.37-1.22,6.4,0,1.22.13,2.38.37,3.49-2.52,1.97-4.46,4.66-5.65,7.93l-5.54,15.29c-.62,1.73-.94,3.53-.94,5.33,0,7.62,5.71,13.15,13.57,13.15h71.73l.46-.04c7.34-.68,12.96-4.93,15.4-11.65l2.81-7.73c-.14,1.02-.23,2.05-.23,3.12,0,9.75,6.89,16.3,17.14,16.3h66.15c6.57,0,12.02-3.25,15.08-8.79,2.61,5.45,8.19,8.79,15.51,8.79h51.35l.46-.04c3.84-.36,7.21-1.7,9.9-3.85,2.96,2.48,6.97,3.9,11.72,3.9h66.15c6.55,0,11.98-3.22,15.05-8.73,2.89,5.97,9.3,8.73,15.68,8.73h66.22c7.62,0,13.73-4.39,16.33-11.7l4.65-12.82c.46-1.3.74-2.52.88-3.7.85.14,1.73.22,2.64.22h3.54l-3.43,9.52c-.62,1.73-.94,3.53-.94,5.33,0,7.62,5.71,13.15,13.57,13.15h7.63c7.52,0,13.61-4.35,16.33-11.69l5.94-16.31h28.62c7.52,0,13.61-4.35,16.32-11.67l6.54-17.87c.62-1.73.93-3.52.93-5.31,0-7.62-5.71-13.15-13.57-13.15Zm-185.01,33.27c2.28-1.22,4.25-2.97,5.8-5.18l-2.98,8.21c-.77-1.16-1.71-2.18-2.82-3.03Zm-133.2-41.96l11.51-31.57h4.19l-8.98,24.65c-.7,1.87-1.05,3.73-1.05,5.53,0,4.19,1.76,7.74,4.66,10.08h-17.05c3.05-2.02,5.37-4.97,6.72-8.69Zm-127.91-36.8l-3.59,9.89c.09-.77.16-1.55.16-2.34,0-1.22-.12-2.39-.37-3.49,1.49-1.14,2.76-2.5,3.8-4.06Zm19.24,62.22l-1.35,3.7c-10.09.65-17.62,6.51-21.33,16.66l-.17.47c.11-.82.18-1.65.18-2.5,0-1.22-.12-2.39-.37-3.49,2.65-2.03,4.63-4.75,5.79-8.02l1.84-5.08c.62-1.73.93-3.52.93-5.31,0-7.62-5.71-13.15-13.57-13.15h-10.77c3.05-2.02,5.37-4.97,6.73-8.69l2.81-7.73c-.14,1.02-.23,2.06-.23,3.12,0,9.75,6.89,16.3,17.14,16.3h23.44c-4.96,2.77-8.76,7.41-11.07,13.73Zm71.7,16.54c2.13-1.14,3.97-2.75,5.47-4.75l-2.77,7.61c-.74-1.09-1.64-2.06-2.7-2.86Zm11.6-21.59l-.64,1.75c0-.09.01-.19.01-.28,0-7.62-5.71-13.15-13.57-13.15h-8.18c4.47-2.5,7.99-6.51,10.33-11.9-.07.58-.11,1.16-.11,1.75,0,7.62,5.71,13.15,13.57,13.15h5.31c-3.05,2.02-5.37,4.97-6.73,8.69Zm86.87,5.04l-1.35,3.7c-9.02.58-15.99,5.34-20.02,13.59-1.59-.59-3.34-.91-5.22-.91h-8.64l5.33-14.65c.62-1.73.93-3.52.93-5.31,0-4.22-1.76-7.8-4.66-10.15h19.44c7.52,0,13.61-4.35,16.33-11.69l1.18-3.23c.45,7.31,4.78,11.76,10.23,13.72-6.19,2.51-10.86,7.6-13.54,14.93Z"/><path class="d" d="m39.01,27.1c1.21-3.4,3.52-5.1,6.93-5.1h71.26c2.38,0,3.57,1.05,3.57,3.15,0,.65-.12,1.31-.35,1.96l-1.82,5.04c-.75,2.1-2.15,3.59-4.2,4.48-.98.42-1.89.63-2.73.63h-61.11c-1.59,0-2.75.86-3.5,2.59-.09.33-.14.63-.14.91,0,1.07.61,1.61,1.82,1.61h58.52c3.55,0,5.32,1.56,5.32,4.69,0,1.07-.16,2.05-.49,2.94l-8.33,22.89c-1.12,3.08-3.43,4.78-6.93,5.11H25.57c-2.38,0-3.57-1.05-3.57-3.15,0-.65.12-1.31.35-1.96l5.53-15.26c1.12-3.08,3.43-4.78,6.93-5.11h56c1.59,0,2.75-.85,3.5-2.55.09-.33.14-.66.14-.99,0-1.04-.58-1.56-1.75-1.56h-53.48c-3.64,0-5.46-1.54-5.46-4.61,0-.84.21-1.84.63-3l4.62-12.71Z"/><path class="d" d="m214.36,22c4.85,0,7.28,2.05,7.28,6.16,0,1.12-.28,2.45-.84,3.99l-12.95,35.7c-2.47,6.77-7.09,10.15-13.86,10.15h-61.11c-4.76,0-7.14-2.1-7.14-6.3,0-1.4.21-2.68.63-3.85l12.95-35.7c1.49-4.15,4.29-7.12,8.4-8.89,1.96-.84,3.8-1.26,5.53-1.26h61.11Zm-18.76,30.52c.09-.33.14-.65.14-.98,0-1.03-.58-1.54-1.75-1.54h-20.37c-1.59,0-2.75.84-3.5,2.52-.09.33-.14.65-.14.98,0,1.07.58,1.61,1.75,1.61h20.37c1.59,0,2.75-.86,3.5-2.59Z"/><path class="d" d="m316.49,22c4.85,0,7.28,2.05,7.28,6.16,0,1.26-.26,2.59-.77,3.99l-14.84,40.74c-1.26,3.41-3.57,5.11-6.93,5.11h-28c-2.43,0-3.64-1.03-3.64-3.08,0-.61.14-1.28.42-2.03l12.04-33.04c.19-.51.28-1.17.28-1.96,0-2.1-1.19-3.15-3.57-3.15h-15.26c-3.36,0-5.67,1.7-6.93,5.11l-12.04,33.04c-1.12,3.08-3.43,4.78-6.93,5.11h-7.63c-2.38,0-3.57-1.05-3.57-3.15,0-.65.12-1.31.35-1.96l14.77-40.74c1.54-4.2,4.32-7.16,8.33-8.89,1.96-.84,3.83-1.26,5.6-1.26h61.04Z"/><path class="d" d="m374.8,55.11c1.59,0,2.75-.86,3.5-2.59.09-.33.14-.65.14-.98,0-1.03-.58-1.54-1.75-1.54h-10.22c-2.43,0-3.64-1.03-3.64-3.08,0-.56.14-1.24.42-2.03l.91-2.52c1.21-3.41,3.55-5.11,7-5.11h40.67c4.9,0,7.35,2.05,7.35,6.16,0,1.17-.28,2.52-.84,4.06l-7.42,20.37c-2.47,6.77-7.09,10.15-13.86,10.15h-61.11c-4.85,0-7.28-2.05-7.28-6.16,0-1.12.28-2.45.84-3.99l12.95-35.7c2.47-6.77,7.09-10.15,13.86-10.15h38.15c1.26,0,1.89.51,1.89,1.54,0,.28-.07.61-.21.98l-1.89,5.11c-.61,1.68-1.75,2.52-3.43,2.52h-28c-1.68,0-2.85.86-3.5,2.59l-6.51,17.78c-.09.38-.14.72-.14,1.05,0,1.03.61,1.54,1.82,1.54h20.3Z"/><path class="d" d="m39.01,100.1c1.21-3.4,3.52-5.1,6.93-5.1h71.26c2.38,0,3.57,1.05,3.57,3.15,0,.65-.12,1.31-.35,1.96l-1.82,5.04c-.75,2.1-2.15,3.59-4.2,4.48-.98.42-1.89.63-2.73.63h-61.11c-1.59,0-2.75.86-3.5,2.59-.09.33-.14.63-.14.91,0,1.07.61,1.61,1.82,1.61h58.52c3.55,0,5.32,1.56,5.32,4.69,0,1.07-.16,2.05-.49,2.94l-8.33,22.89c-1.12,3.08-3.43,4.78-6.93,5.11H25.57c-2.38,0-3.57-1.05-3.57-3.15,0-.65.12-1.31.35-1.96l5.53-15.26c1.12-3.08,3.43-4.78,6.93-5.11h56c1.59,0,2.75-.85,3.5-2.55.09-.33.14-.66.14-.99,0-1.04-.58-1.56-1.75-1.56h-53.48c-3.64,0-5.46-1.54-5.46-4.61,0-.84.21-1.84.63-3l4.62-12.71Z"/><path class="d" d="m145.83,115.37h2.52c1.73,0,2.89-.84,3.5-2.52l2.8-7.7c2.47-6.77,7.09-10.15,13.86-10.15h45.85c2.38,0,3.57,1.05,3.57,3.15,0,.7-.12,1.35-.35,1.96l-1.89,5.04c-1.26,3.41-3.57,5.11-6.93,5.11h-40.74c-1.54,0-2.68.86-3.43,2.59-.14.33-.21.63-.21.91,0,1.07.61,1.61,1.82,1.61h30.52c1.21,0,1.82.51,1.82,1.54,0,.33-.07.65-.21.98-.7,1.73-1.84,2.59-3.43,2.59h-43.26c-1.59,0-2.75.84-3.5,2.52-.09.33-.14.65-.14.98,0,1.03.58,1.54,1.75,1.54h58.59c2.38,0,3.57,1.05,3.57,3.15,0,.65-.12,1.31-.35,1.96l-5.53,15.26c-1.21,3.41-3.55,5.11-7,5.11h-66.15c-4.76,0-7.14-2.1-7.14-6.3,0-1.4.21-2.68.63-3.85l5.6-15.33c2.47-6.77,7.09-10.15,13.86-10.15Z"/><path class="d" d="m266.86,125.52c-.09.23-.14.56-.14.98,0,1.07.58,1.61,1.75,1.61h20.37c2.38,0,3.57,1.05,3.57,3.15,0,.61-.12,1.24-.35,1.89l-4.62,12.74c-1.12,3.08-3.43,4.78-6.93,5.11h-50.89c-4.76,0-7.14-2.1-7.14-6.3,0-1.4.21-2.68.63-3.85l14.84-40.74c1.12-3.08,3.43-4.78,6.93-5.11h28c2.38,0,3.57,1.05,3.57,3.15,0,.65-.12,1.31-.35,1.96l-9.24,25.41Z"/><path class="d" d="m316,115.37h2.52c1.73,0,2.89-.84,3.5-2.52l2.8-7.7c2.47-6.77,7.09-10.15,13.86-10.15h45.85c2.38,0,3.57,1.05,3.57,3.15,0,.7-.12,1.35-.35,1.96l-1.89,5.04c-1.26,3.41-3.57,5.11-6.93,5.11h-40.74c-1.54,0-2.68.86-3.43,2.59-.14.33-.21.63-.21.91,0,1.07.61,1.61,1.82,1.61h30.52c1.21,0,1.82.51,1.82,1.54,0,.33-.07.65-.21.98-.7,1.73-1.84,2.59-3.43,2.59h-43.26c-1.59,0-2.75.84-3.5,2.52-.09.33-.14.65-.14.98,0,1.03.58,1.54,1.75,1.54h58.59c2.38,0,3.57,1.05,3.57,3.15,0,.65-.12,1.31-.35,1.96l-5.53,15.26c-1.21,3.41-3.55,5.11-7,5.11h-66.15c-4.76,0-7.14-2.1-7.14-6.3,0-1.4.21-2.68.63-3.85l5.6-15.33c2.47-6.77,7.09-10.15,13.86-10.15Z"/><path class="d" d="m478.82,95c2.43,0,3.64,1.03,3.64,3.08,0,.7-.12,1.38-.35,2.03l-6.51,17.78c-1.26,3.41-3.57,5.11-6.93,5.11h-48.37c-1.59,0-2.75.84-3.5,2.52-.09.33-.14.65-.14.98,0,1.07.61,1.61,1.82,1.61h56c2.43,0,3.64,1.03,3.64,3.08,0,.51-.14,1.17-.42,1.96l-4.62,12.74c-1.21,3.41-3.52,5.11-6.93,5.11h-66.22c-4.85,0-7.28-2.05-7.28-6.16,0-1.12.28-2.45.84-3.99l12.95-35.7c2.47-6.77,7.09-10.15,13.86-10.15h58.52Z"/><path class="d" d="m490.65,123c-2.43,0-3.64-1.03-3.64-3.08,0-.56.14-1.24.42-2.03l6.44-17.78c1.21-3.41,3.55-5.11,7-5.11h71.26c2.38,0,3.57,1.05,3.57,3.15,0,.65-.12,1.31-.35,1.96l-6.51,17.78c-1.26,3.41-3.57,5.11-6.93,5.11h-33.04c-1.73,0-2.89.84-3.5,2.52l-7.42,20.37c-1.26,3.41-3.57,5.11-6.93,5.11h-7.63c-2.38,0-3.57-1.05-3.57-3.15,0-.65.12-1.31.35-1.96l7.35-20.37c.14-.37.21-.7.21-.98,0-1.03-.61-1.54-1.82-1.54h-15.26Z"/></svg>