<?xml version="1.0" encoding="UTF-8"?><svg id="a" xmlns="http://www.w3.org/2000/svg" viewBox="0 0 643.7 177"><defs><style>.b{fill:#58595b;}.b,.c{stroke-width:0px;}.c{fill:#fff;}</style></defs><path class="b" d="m585.12,4c15.73,0,27.14,11.06,27.14,26.3,0,3.71-.61,7.29-1.81,10.63l-8.35,23c-1.95,5.36-5.39,9.85-9.93,13.07h23.96c13.44,0,23.57,9.95,23.57,23.15,0,2.94-.51,5.85-1.51,8.66l-6.57,17.95c-4.17,11.26-14.01,18.23-25.71,18.23h-21.62l-3.54,9.74c-4.17,11.28-14.02,18.26-25.72,18.26h-7.63c-9.42,0-17.22-4.89-21.04-12.36-5.01,7.76-13.29,12.36-22.78,12.36h-28c-7,0-13.11-2.68-17.36-7.1-4.37,3.94-10.02,6.41-16.42,7.01l-.93.09h-8.56c-6.83,0-12.81-2.58-17.04-6.84-2.13,1.55-4.46,2.87-6.97,3.95-4.48,1.92-8.99,2.89-13.43,2.89h-61.11c-7.52,0-14.07-2.47-18.86-6.72-5.74,4.37-12.85,6.72-20.83,6.72h-61.11c-6.83,0-12.88-2.1-17.53-5.76-4.64,3.69-10.49,5.76-16.91,5.76h-7.63c-2.74,0-5.4-.42-7.9-1.23-1.88.62-3.85,1.01-5.86,1.17l-.78.06h-.79c-3.01,0-5.93-.58-8.61-1.69-2.31.83-4.75,1.36-7.33,1.6l-.94.09h-28.91c-5.8,0-10.99-1.86-15.01-5.03-4.48,3.24-9.93,5.03-15.86,5.03h-28c-6.97,0-13.06-2.66-17.31-7.04-4.87,4.5-11.26,7.04-18.32,7.04h-7.63c-13.48,0-23.64-9.92-23.64-23.08,0-2.98.56-6,1.66-8.97l9.2-25.31c2.37-6.53,5.99-11.83,10.62-15.73-12.39-1-21.48-10.55-21.48-22.99,0-2.87.51-5.71,1.56-8.69l14.83-40.9C25.81,12.5,37.74,4,53.12,4h61.04c6.89,0,12.99,2.14,17.65,5.86,4.14-3.22,9.24-5.24,14.93-5.77l.93-.09h28.93c13.44,0,23.57,9.95,23.57,23.15,0,.2,0,.4,0,.6,4.56-4.17,10.18-6.89,16.58-7.96,4.26-8.96,12.63-14.75,22.91-15.7l.92-.08h49.22c5.57,0,10.65,1.36,14.89,3.9,4.15-2.53,9-3.9,14.16-3.9h7.63c7,0,13.11,2.68,17.36,7.09,4.37-3.94,10.02-6.41,16.41-7.01l.93-.09h28.93c10.59,0,19.13,6.18,22.27,15.26,6.31-9.8,16.39-15.26,28.69-15.26h45.85c6.76,0,12.68,2.52,16.89,6.7,2.07-1.48,4.33-2.76,6.77-3.81,4.48-1.92,9.02-2.89,13.51-2.89h61.04m0-4h-61.04c-5.03,0-10.11,1.08-15.08,3.21-1.69.73-3.31,1.56-4.85,2.48-4.79-3.69-10.8-5.69-17.24-5.69h-45.85c-11.22,0-20.94,4.14-27.98,11.8-4.94-7.33-13.39-11.8-22.98-11.8h-29.12l-.19.02-.93.09c-5.89.55-11.31,2.52-15.88,5.75-4.84-3.8-10.93-5.86-17.52-5.86h-7.63c-5.01,0-9.86,1.15-14.18,3.33-4.43-2.19-9.52-3.33-14.87-3.33h-49.4l-.18.02-.92.08c-11.01,1.02-20.09,6.86-25.22,16.13-3.85.85-7.42,2.25-10.69,4.18-2.89-12-13.45-20.41-26.78-20.41h-29.12l-.19.02-.93.09c-5.29.49-10.25,2.16-14.53,4.86-5.07-3.25-11.12-4.96-17.67-4.96h-61.04c-17.16,0-30.46,9.46-36.49,25.96L1.8,66.87c-1.21,3.44-1.8,6.72-1.8,10.05,0,11.83,7.09,21.58,17.65,25.38-2.71,3.45-4.91,7.46-6.55,11.98l-9.2,25.3c-1.26,3.39-1.9,6.88-1.9,10.33,0,15.44,11.88,27.08,27.64,27.08h7.63c6.65,0,12.99-2.03,18.2-5.79,4.83,3.75,10.89,5.79,17.43,5.79h28c5.67,0,11.06-1.45,15.77-4.2,4.41,2.76,9.57,4.2,15.09,4.2h29.1l.18-.02.94-.09c2.37-.22,4.67-.67,6.87-1.34,2.77.96,5.69,1.45,8.7,1.45h1.11s.78-.08.78-.08c1.88-.15,3.74-.48,5.55-.98,2.54.7,5.19,1.06,7.89,1.06h7.63c6.18,0,11.97-1.67,16.93-4.85,5.04,3.19,11.03,4.85,17.51,4.85h61.11c7.61,0,14.69-1.98,20.67-5.75,5.3,3.73,11.93,5.75,19.02,5.75h61.11c4.99,0,10.04-1.08,15.01-3.21,1.76-.76,3.45-1.63,5.05-2.6,4.82,3.77,10.88,5.81,17.39,5.81h8.74l.18-.02.93-.09c5.89-.55,11.32-2.52,15.89-5.75,4.84,3.8,10.93,5.86,17.52,5.86h28c8.79,0,16.74-3.43,22.53-9.58,5.1,6.01,12.82,9.58,21.29,9.58h7.63c13.42,0,24.71-8,29.47-20.88l2.59-7.12h18.82c13.42,0,24.7-7.99,29.46-20.85l6.58-17.97c1.17-3.28,1.75-6.64,1.75-10.04,0-15.48-11.85-27.15-27.57-27.15h-14.33c1.68-2.34,3.05-4.93,4.06-7.7l8.35-23.01c1.36-3.79,2.05-7.82,2.05-11.99,0-8.46-3.16-16.18-8.89-21.74-5.7-5.52-13.6-8.56-22.25-8.56h0Z"/><path class="b" d="m616.13,87h-46.6c2.87-2.01,5.12-4.96,6.5-8.68l2.3-6.3c1.57-.2,3.15-.64,4.72-1.32,4.61-1.99,7.94-5.5,9.64-10.18l8.34-22.98c.81-2.25,1.22-4.69,1.22-7.24,0-9.75-6.89-16.3-17.14-16.3h-61.04c-3.13,0-6.33.7-9.55,2.07-6.52,2.81-11.28,7.87-13.78,14.67l-7.61,20.98c-.85-1.76-2.09-3.27-3.64-4.45,3.64-1.95,6.49-5.26,8.1-9.61l1.87-4.97c.67-1.75,1.01-3.62,1.01-5.54,0-7.62-5.71-13.15-13.57-13.15h-45.85c-11.05,0-19.31,5.94-23.26,16.73l-1.35,3.7c-7.81.51-14.08,4.14-18.24,10.46l4.52-12.42c.62-1.73.93-3.53.93-5.32,0-7.62-5.71-13.15-13.57-13.15h-28.47l-.46.04c-7.34.69-12.95,4.93-15.39,11.63l-2.26,6.17h-4.2c.52-1.61.79-3.21.79-4.77,0-7.58-5.74-13.08-13.64-13.08h-7.63c-5.96,0-11.02,2.75-14.22,7.54-2.83-4.7-8.1-7.54-14.83-7.54h-48.76l-.46.04c-7.39.68-13.03,4.93-15.5,11.7l-1.26,3.52h-.67c-11.07,0-19.33,5.97-23.26,16.8l-.9,2.47c-1.88-.91-4.06-1.43-6.43-1.43h-8.64l5.33-14.65c.62-1.73.93-3.52.93-5.31,0-7.62-5.71-13.15-13.57-13.15h-28.47l-.46.04c-7.34.69-12.95,4.93-15.4,11.64l-1.05,2.88c-.77-8.79-7.43-14.57-17.06-14.57h-61.04c-11.1,0-19.38,5.94-23.33,16.74l-14.8,40.82c-.67,1.89-.99,3.64-.99,5.36,0,7.58,5.74,13.08,13.64,13.08h5.11c7.62,0,13.73-4.39,16.33-11.71l1.28-3.55h49.02c3.08,0,6.27-.7,9.48-2.07,3.29-1.42,6.13-3.42,8.46-5.92-.75,2.17-1.13,4.51-1.13,6.95,0,9.75,6.89,16.3,17.14,16.3h10.47c-5.55,2.93-9.64,7.62-11.89,13.74l-.78,2.16c.1-.85.17-1.72.17-2.61,0-9.75-6.89-16.3-17.14-16.3h-48.76l-.46.04c-7.39.68-13.03,4.93-15.5,11.7l-1.26,3.52h-.67c-11.07,0-19.33,5.97-23.26,16.8l-9.23,25.37c-.69,1.85-1.04,3.7-1.04,5.49,0,7.58,5.74,13.08,13.64,13.08h7.63c7.52,0,13.61-4.35,16.33-11.69l5.94-16.31h4.19l-3.42,9.38c-.7,1.87-1.06,3.73-1.06,5.54,0,7.58,5.74,13.08,13.64,13.08h28c7.52,0,13.61-4.35,16.33-11.69l1.04-2.84c-.04.46-.06.92-.06,1.38,0,7.62,5.71,13.15,13.57,13.15h28.45l.46-.04c3.31-.31,6.27-1.35,8.75-3,2.08,1.91,4.91,3.05,8.12,3.05h.39l.39-.03c2.48-.2,4.74-.95,6.65-2.18,2.19,1.41,4.88,2.21,7.89,2.21h7.63c7.62,0,13.73-4.39,16.33-11.7l1.05-2.88c.76,8.79,7.42,14.59,17.06,14.59h61.11c10.37,0,18.28-5.23,22.48-14.79.69,10.19,8.98,14.79,17.21,14.79h61.11c3.08,0,6.27-.7,9.48-2.07,6.53-2.81,11.29-7.87,13.77-14.65l14.85-40.76c.59-1.63.88-3.38.88-5.36,0-4.22-1.76-7.8-4.66-10.15h17.16c-5.55,2.93-9.64,7.62-11.89,13.74l-14.78,40.78c-.62,1.73-.94,3.53-.94,5.33,0,7.62,5.71,13.15,13.57,13.15h8.09l.46-.04c7.34-.68,12.96-4.93,15.4-11.64l11.51-31.57h4.19l-8.98,24.65c-.7,1.87-1.05,3.73-1.05,5.53,0,7.58,5.74,13.08,13.64,13.08h28c7.52,0,13.61-4.35,16.33-11.69l6.77-18.59c2.2,1.45,4.93,2.28,7.98,2.28h3.54l-3.43,9.52c-.62,1.73-.94,3.53-.94,5.33,0,7.62,5.71,13.15,13.57,13.15h7.63c7.52,0,13.61-4.35,16.33-11.69l5.94-16.31h28.62c7.52,0,13.61-4.35,16.32-11.67l6.54-17.87c.62-1.73.93-3.52.93-5.31,0-7.62-5.71-13.15-13.57-13.15Zm-422.04-.18c.07.06.14.12.21.18h-.46c.09-.06.17-.12.26-.18Zm36.88,14.58c-.66-7.56-5.58-11.95-11.49-13.61,3.46-1.98,6.18-5.22,7.75-9.47l5.94-16.31h4.19l-3.42,9.38c-.7,1.87-1.06,3.73-1.06,5.54,0,6.34,4.02,11.21,9.96,12.64-5.34,2.56-9.42,6.6-11.88,11.84Zm101.71-2.7l-1.05,2.88c-.78-10.05-9.02-14.59-17.2-14.59h-30.08c2.87-2.01,5.12-4.96,6.5-8.69l3.76-10.31c3.24,4.59,8.88,6.74,14.5,6.74h16.67c-.1.7-.14,1.4-.14,2.11,0,7.6,5.67,13.11,13.5,13.15-2.89,2.01-5.13,4.98-6.46,8.71Zm63.63-.01l-7.79,21.42h-4.13l5.31-14.58.09-.27c.57-1.72.86-3.46.86-5.18,0-7.58-5.74-13.08-13.64-13.08h-20.57c3.05-2.02,5.37-4.96,6.71-8.67l1.32-3.59h5.74c3.08,0,6.27-.7,9.48-2.07,4.51-1.94,8.15-4.98,10.8-8.91l-.99,2.71c-.81,2.25-1.22,4.69-1.22,7.24,0,9.03,5.91,15.3,14.92,16.18-3.14,2.02-5.52,5.02-6.9,8.81Zm89.77-16.49c.8,1.9,2.04,3.53,3.6,4.8h-8.18c1.8-1.25,3.34-2.86,4.58-4.8Zm32.75,4.8h-3c3.05-2.02,5.37-4.97,6.72-8.68l2.26-6.17h1.62c-.48,1.58-.73,3.18-.73,4.77,0,6.33,4.01,11.19,9.92,12.63-1.25.78-2.38,1.72-3.39,2.82-3.33-3.65-8.37-5.37-13.4-5.37Z"/><path class="c" d="m121.3,30.3c0,1.4-.21,2.68-.63,3.85l-7.42,20.37c-1.54,4.25-4.32,7.23-8.33,8.96-1.96.84-3.8,1.26-5.53,1.26h-50.89c-3.45,0-5.79,1.7-7,5.11l-1.82,5.04c-1.21,3.41-3.52,5.11-6.93,5.11h-5.11c-2.43,0-3.64-1.03-3.64-3.08,0-.56.14-1.24.42-2.03l14.77-40.74c2.47-6.77,7.12-10.15,13.93-10.15h61.04c4.76,0,7.14,2.1,7.14,6.3Zm-40.67,8.96c.09-.33.14-.65.14-.98,0-1.03-.58-1.54-1.75-1.54h-20.37c-1.59,0-2.75.84-3.5,2.52-.09.33-.14.65-.14.98,0,1.07.61,1.61,1.82,1.61h20.3c1.59,0,2.75-.86,3.5-2.59Z"/><path class="c" d="m170.58,54.52c-.09.23-.14.56-.14.98,0,1.07.58,1.61,1.75,1.61h20.37c2.38,0,3.57,1.05,3.57,3.15,0,.61-.12,1.24-.35,1.89l-4.62,12.74c-1.12,3.08-3.43,4.78-6.93,5.11h-50.89c-4.76,0-7.14-2.1-7.14-6.3,0-1.4.21-2.68.63-3.85l14.84-40.74c1.12-3.08,3.43-4.78,6.93-5.11h28c2.38,0,3.57,1.05,3.57,3.15,0,.65-.12,1.31-.35,1.96l-9.24,25.41Z"/><path class="c" d="m281.46,74.89c-1.26,3.41-3.57,5.11-6.93,5.11h-28c-2.43,0-3.64-1.03-3.64-3.08,0-.61.14-1.28.42-2.03l7.42-20.37c.09-.23.14-.56.14-.98,0-1.03-.58-1.54-1.75-1.54h-20.37c-1.73,0-2.89.84-3.5,2.52l-7.42,20.37c-1.26,3.41-3.57,5.11-6.93,5.11h-7.63c-2.43,0-3.64-1.03-3.64-3.08,0-.61.14-1.28.42-2.03l9.24-25.41c2.47-6.81,7.09-10.22,13.86-10.22h5.11c1.73,0,2.89-.84,3.5-2.52l2.73-7.63c1.12-3.08,3.45-4.78,7-5.11h48.3c4.76,0,7.14,2.1,7.14,6.3,0,1.4-.21,2.68-.63,3.85l-14.84,40.74Zm-27.72-35.63c1.54,0,2.68-.84,3.43-2.52.14-.33.21-.65.21-.98,0-1.07-.61-1.61-1.82-1.61h-15.26c-1.59,0-2.75.86-3.5,2.59-.09.33-.14.65-.14.98,0,1.03.61,1.54,1.82,1.54h15.26Z"/><path class="c" d="m309.11,64.74c-4.85,0-7.28-2.05-7.28-6.16,0-1.17.28-2.52.84-4.06l9.24-25.41c1.26-3.41,3.57-5.11,6.93-5.11h7.63c2.43,0,3.64,1.03,3.64,3.08,0,.61-.14,1.28-.42,2.03l-3.71,10.15c-.09.23-.14.56-.14.98,0,1.07.61,1.61,1.82,1.61h20.3c1.68,0,2.85-.86,3.5-2.59l3.71-10.15c1.12-3.08,3.43-4.78,6.93-5.11h28c2.38,0,3.57,1.05,3.57,3.15,0,.65-.12,1.31-.35,1.96l-9.24,25.41c-1.54,4.25-4.32,7.23-8.33,8.96-1.96.84-3.8,1.26-5.53,1.26h-10.22c-1.68,0-2.82.84-3.43,2.52l-2.8,7.63c-1.12,3.08-3.43,4.78-6.93,5.11h-7.63c-2.38,0-3.57-1.05-3.57-3.15,0-.65.12-1.31.35-1.96l2.73-7.63c.14-.37.21-.7.21-.98,0-1.03-.61-1.54-1.82-1.54h-28Z"/><path class="c" d="m418.38,44.37h2.52c1.73,0,2.89-.84,3.5-2.52l2.8-7.7c2.47-6.77,7.09-10.15,13.86-10.15h45.85c2.38,0,3.57,1.05,3.57,3.15,0,.7-.12,1.35-.35,1.96l-1.89,5.04c-1.26,3.41-3.57,5.11-6.93,5.11h-40.74c-1.54,0-2.68.86-3.43,2.59-.14.33-.21.63-.21.91,0,1.07.61,1.61,1.82,1.61h30.52c1.21,0,1.82.51,1.82,1.54,0,.33-.07.65-.21.98-.7,1.73-1.84,2.59-3.43,2.59h-43.26c-1.59,0-2.75.84-3.5,2.52-.09.33-.14.65-.14.98,0,1.03.58,1.54,1.75,1.54h58.59c2.38,0,3.57,1.05,3.57,3.15,0,.65-.12,1.31-.35,1.96l-5.53,15.26c-1.21,3.41-3.55,5.11-7,5.11h-66.15c-4.76,0-7.14-2.1-7.14-6.3,0-1.4.21-2.68.63-3.85l5.6-15.33c2.47-6.77,7.09-10.15,13.86-10.15Z"/><path class="c" d="m573.78,62.15c-1.63,0-2.78.86-3.43,2.59l-3.71,10.15c-1.26,3.41-3.57,5.11-6.93,5.11h-20.37c-2.43,0-3.64-1.03-3.64-3.08,0-.65.12-1.33.35-2.03l3.71-10.15c.14-.37.21-.7.21-.98,0-1.07-.61-1.61-1.82-1.61h-17.78c-1.68,0-2.85.86-3.5,2.59l-3.71,10.15c-1.12,3.08-3.43,4.78-6.93,5.11h-7.63c-2.38,0-3.57-1.05-3.57-3.15,0-.65.12-1.31.35-1.96l14.77-40.74c1.54-4.2,4.32-7.16,8.33-8.89,1.96-.84,3.83-1.26,5.6-1.26h61.04c4.76,0,7.14,2.1,7.14,6.3,0,1.4-.21,2.68-.63,3.85l-8.33,22.96c-.75,2.05-2.15,3.52-4.2,4.41-.98.42-1.89.63-2.73.63h-2.59Zm-19.67-22.89c.14-.33.21-.65.21-.98,0-1.03-.61-1.54-1.82-1.54h-22.89c-1.59,0-2.75.84-3.5,2.52-.09.33-.14.65-.14.98,0,1.07.58,1.61,1.75,1.61h22.96c1.59,0,2.73-.86,3.43-2.59Z"/><path class="c" d="m105.83,147.89c-1.26,3.41-3.57,5.11-6.93,5.11h-28c-2.43,0-3.64-1.03-3.64-3.08,0-.61.14-1.28.42-2.03l7.42-20.37c.09-.23.14-.56.14-.98,0-1.03-.58-1.54-1.75-1.54h-20.37c-1.73,0-2.89.84-3.5,2.52l-7.42,20.37c-1.26,3.41-3.57,5.11-6.93,5.11h-7.63c-2.43,0-3.64-1.03-3.64-3.08,0-.61.14-1.28.42-2.03l9.24-25.41c2.47-6.81,7.09-10.22,13.86-10.22h5.11c1.73,0,2.89-.84,3.5-2.52l2.73-7.63c1.12-3.08,3.45-4.78,7-5.11h48.3c4.76,0,7.14,2.1,7.14,6.3,0,1.4-.21,2.68-.63,3.85l-14.84,40.74Zm-27.72-35.63c1.54,0,2.68-.84,3.43-2.52.14-.33.21-.65.21-.98,0-1.07-.61-1.61-1.82-1.61h-15.26c-1.59,0-2.75.86-3.5,2.59-.09.33-.14.65-.14.98,0,1.03.61,1.54,1.82,1.54h15.26Z"/><path class="c" d="m196.42,109.74c-1.72,0-2.89.84-3.49,2.53l-13.89,38.21c-.56,1.54-1.72,2.38-3.5,2.52-1.17,0-1.75-.51-1.75-1.54,0-.42.05-.75.14-.98l13.93-38.22c.14-.37.21-.7.21-.98,0-1.03-.61-1.54-1.82-1.54h-5.1c-1.73,0-2.89.84-3.5,2.52l-12.98,35.62c-1.12,3.08-3.43,4.79-6.93,5.12h-27.98c-2.38,0-3.57-1.05-3.57-3.15,0-.65.12-1.31.35-1.96l14.77-40.74c1.54-4.2,4.32-7.16,8.33-8.89,1.96-.84,3.83-1.26,5.6-1.26h58.52c4.85,0,7.28,2.05,7.28,6.16,0,1.12-.28,2.45-.84,3.99l-14.77,40.74c-1.21,3.41-3.52,5.11-6.93,5.11h-7.63c-2.43,0-3.64-1.03-3.64-3.08,0-.65.12-1.33.35-2.03l13.02-35.63c.09-.37.14-.7.14-.98,0-1.03-.61-1.54-1.82-1.54h-2.51Z"/><path class="c" d="m314.43,97c4.85,0,7.28,2.05,7.28,6.16,0,1.12-.28,2.45-.84,3.99l-12.95,35.7c-2.47,6.77-7.09,10.15-13.86,10.15h-61.11c-4.76,0-7.14-2.1-7.14-6.3,0-1.4.21-2.68.63-3.85l12.95-35.7c1.49-4.15,4.29-7.12,8.4-8.89,1.96-.84,3.8-1.26,5.53-1.26h61.11Zm-18.76,30.52c.09-.33.14-.65.14-.98,0-1.03-.58-1.54-1.75-1.54h-20.37c-1.59,0-2.75.84-3.5,2.52-.09.33-.14.65-.14.98,0,1.07.58,1.61,1.75,1.61h20.37c1.59,0,2.75-.86,3.5-2.59Z"/><path class="c" d="m333.75,153c-4.85,0-7.28-2.05-7.28-6.16,0-1.12.28-2.45.84-3.99l14.77-40.74c1.21-3.41,3.52-5.11,6.93-5.11h28c2.43,0,3.64,1.03,3.64,3.08,0,.65-.12,1.33-.35,2.03l-8.33,22.89c-.23.65-.35,1.31-.35,1.96,0,2.1,1.19,3.15,3.57,3.15h15.26c3.36,0,5.67-1.7,6.93-5.11l8.33-22.89c1.12-3.08,3.43-4.78,6.93-5.11h7.63c2.38,0,3.57,1.05,3.57,3.15,0,.79-.09,1.45-.28,1.96l-14.84,40.74c-1.54,4.2-4.32,7.16-8.33,8.89-1.96.84-3.8,1.26-5.53,1.26h-61.11Z"/><path class="c" d="m518.83,97c4.85,0,7.28,2.05,7.28,6.16,0,1.26-.26,2.59-.77,3.99l-14.84,40.74c-1.26,3.41-3.57,5.11-6.93,5.11h-28c-2.43,0-3.64-1.03-3.64-3.08,0-.61.14-1.28.42-2.03l12.04-33.04c.19-.51.28-1.17.28-1.96,0-2.1-1.19-3.15-3.57-3.15h-15.26c-3.36,0-5.67,1.7-6.93,5.11l-12.04,33.04c-1.12,3.08-3.43,4.78-6.93,5.11h-7.63c-2.38,0-3.57-1.05-3.57-3.15,0-.65.12-1.31.35-1.96l14.77-40.74c1.54-4.2,4.32-7.16,8.33-8.89,1.96-.84,3.83-1.26,5.6-1.26h61.04Z"/><path class="c" d="m534.65,125c-2.43,0-3.64-1.03-3.64-3.08,0-.56.14-1.24.42-2.03l6.44-17.78c1.21-3.41,3.55-5.11,7-5.11h71.26c2.38,0,3.57,1.05,3.57,3.15,0,.65-.12,1.31-.35,1.96l-6.51,17.78c-1.26,3.41-3.57,5.11-6.93,5.11h-33.04c-1.73,0-2.89.84-3.5,2.52l-7.42,20.37c-1.26,3.41-3.57,5.11-6.93,5.11h-7.63c-2.38,0-3.57-1.05-3.57-3.15,0-.65.12-1.31.35-1.96l7.35-20.37c.14-.37.21-.7.21-.98,0-1.03-.61-1.54-1.82-1.54h-15.26Z"/></svg>