<?xml version="1.0" encoding="UTF-8"?><svg id="a" xmlns="http://www.w3.org/2000/svg" viewBox="0 0 153.31 146.4"><defs><style>.b{fill:#58595b;}.b,.c{stroke-width:0px;}.c{fill:#fff;}</style></defs><path class="b" d="m38.77,134.4c-11.51,0-16.66-7.85-16.66-15.63,0-2.3.47-4.73,1.4-7.22l18.83-51.64h-13.69c-11.51,0-16.66-7.85-16.66-15.63,0-2.19.44-4.49,1.34-7.04l3.35-9.28c3.61-10.12,11.66-15.95,22.08-15.95h79.23c17.19,0,23.31,10.98,23.31,21.26,0,3.25-.7,6.75-2.14,10.71l-27,74.49c-3.6,10.11-11.7,15.94-22.2,15.94h-51.2Z"/><path class="c" d="m53.23,59.25c.34-.94.51-2.13.51-3.58,0-3.84-2.13-5.76-6.4-5.76h-18.69c-4.44,0-6.66-1.88-6.66-5.63,0-1.02.26-2.26.77-3.71l3.33-9.22c2.22-6.23,6.44-9.34,12.67-9.34h79.23c8.87,0,13.31,3.76,13.31,11.26,0,2.05-.51,4.48-1.54,7.3l-27.01,74.5c-2.22,6.23-6.49,9.34-12.8,9.34h-51.2c-4.44,0-6.66-1.88-6.66-5.63,0-1.11.26-2.35.77-3.71l20.35-55.81Z"/></svg>