<?xml version="1.0" encoding="UTF-8"?><svg id="a" xmlns="http://www.w3.org/2000/svg" viewBox="0 0 204.64 146.4"><defs><style>.b{fill:#58595b;}.b,.c{stroke-width:0px;}.c{fill:#fff;}</style></defs><path class="b" d="m28.66,134.4c-11.51,0-16.66-7.85-16.66-15.63,0-2.31.47-4.74,1.41-7.23l15.2-41.76c2.77-7.56,7.26-13.18,13.11-16.61-1.74-2.64-2.57-5.77-2.57-8.9,0-2.6.44-5.06,1.31-7.32l3.42-9.12c3.72-10.05,11.75-15.83,22.04-15.83h93.06c17.19,0,23.31,10.97,23.31,21.23,0,3.46-.68,7.07-2.02,10.72l-5.11,14.02c-1.37,3.75-3.27,7.05-5.64,9.83h6.36c11.59,0,16.78,7.85,16.78,15.63,0,2.31-.47,4.74-1.4,7.22l-10.22,27.84c-3.74,10.11-11.78,15.9-22.06,15.9H28.66Z"/><path class="c" d="m171.63,115.06c-2.3,6.23-6.53,9.34-12.67,9.34H28.66c-4.44,0-6.66-1.88-6.66-5.63,0-1.11.26-2.35.77-3.71l15.23-41.86c3.41-9.3,9.77-13.95,19.07-13.95h79.1c2.82,0,4.91-1.54,6.27-4.61.26-.6.38-1.19.38-1.79,0-1.96-1.11-2.94-3.33-2.94H55.79c-4.44,0-6.66-1.88-6.66-5.63,0-1.36.21-2.6.64-3.71l3.46-9.22c2.3-6.23,6.53-9.34,12.67-9.34h93.06c8.87,0,13.31,3.75,13.31,11.23,0,2.3-.47,4.72-1.41,7.28l-5.12,14.04c-3.07,8.43-9.43,13.06-19.07,13.91h-69.76c-2.9,0-5.04,1.56-6.4,4.67-.17.61-.26,1.21-.26,1.82,0,1.9,1.07,2.86,3.2,2.86h102.4c4.52,0,6.78,1.88,6.78,5.63,0,1.11-.26,2.35-.77,3.71l-10.24,27.9Z"/></svg>