<?xml version="1.0" encoding="UTF-8"?><svg id="a" xmlns="http://www.w3.org/2000/svg" viewBox="0 0 204.64 146.4"><defs><style>.b{fill:none;stroke:#ff78b5;stroke-miterlimit:10;stroke-width:4px;}.c{fill:#ff78b5;}.c,.d{stroke-width:0px;}.d{fill:#fff;}</style></defs><path class="b" d="m28.66,144.4c-10.29,0-16.54-4.4-19.97-8.09-4.31-4.64-6.69-10.87-6.69-17.54,0-3.5.68-7.09,2.02-10.69l15.18-41.72c2.42-6.58,5.98-12.18,10.5-16.53-.37-1.8-.57-3.66-.57-5.55,0-3.82.66-7.48,1.96-10.87l3.41-9.08c5.16-13.96,16.91-22.32,31.4-22.32h93.06c23.01,0,33.31,15.69,33.31,31.23,0,4.65-.89,9.41-2.63,14.17l-4.31,11.82c4.93,1.59,8.34,4.27,10.57,6.65,4.35,4.65,6.74,10.88,6.74,17.57,0,3.51-.69,7.12-2.04,10.74l-10.19,27.77c-5.2,14.07-16.96,22.45-31.45,22.45H28.66Z"/><path class="c" d="m28.66,134.4c-11.51,0-16.66-7.85-16.66-15.63,0-2.31.47-4.74,1.41-7.23l15.2-41.76c2.77-7.56,7.26-13.18,13.11-16.61-1.74-2.64-2.57-5.77-2.57-8.9,0-2.6.44-5.06,1.31-7.32l3.42-9.12c3.72-10.05,11.75-15.83,22.04-15.83h93.06c17.19,0,23.31,10.97,23.31,21.23,0,3.46-.68,7.07-2.02,10.72l-5.11,14.02c-1.37,3.75-3.27,7.05-5.64,9.83h6.36c11.59,0,16.78,7.85,16.78,15.63,0,2.31-.47,4.74-1.4,7.22l-10.22,27.84c-3.74,10.11-11.78,15.9-22.06,15.9H28.66Z"/><path class="d" d="m171.63,115.06c-2.3,6.23-6.53,9.34-12.67,9.34H28.66c-4.44,0-6.66-1.88-6.66-5.63,0-1.11.26-2.35.77-3.71l15.23-41.86c3.41-9.3,9.77-13.95,19.07-13.95h79.1c2.82,0,4.91-1.54,6.27-4.61.26-.6.38-1.19.38-1.79,0-1.96-1.11-2.94-3.33-2.94H55.79c-4.44,0-6.66-1.88-6.66-5.63,0-1.36.21-2.6.64-3.71l3.46-9.22c2.3-6.23,6.53-9.34,12.67-9.34h93.06c8.87,0,13.31,3.75,13.31,11.23,0,2.3-.47,4.72-1.41,7.28l-5.12,14.04c-3.07,8.43-9.43,13.06-19.07,13.91h-69.76c-2.9,0-5.04,1.56-6.4,4.67-.17.61-.26,1.21-.26,1.82,0,1.9,1.07,2.86,3.2,2.86h102.4c4.52,0,6.78,1.88,6.78,5.63,0,1.11-.26,2.35-.77,3.71l-10.24,27.9Z"/></svg>