<?xml version="1.0" encoding="UTF-8"?><svg id="a" xmlns="http://www.w3.org/2000/svg" viewBox="0 0 607.43 176"><defs><style>.b{fill:#585858;}.b,.c{stroke-width:0px;}.c{fill:#fff;}</style></defs><path class="b" d="m588.7,0h-74.31c-4.48,0-8.55,1.15-12,3.27-3.05-2.07-6.82-3.27-11-3.27h-61.03c-8.54,0-15.85,3.04-21.27,8.61-3.22-5.24-9.06-8.61-16.03-8.61h-47.82c-13.39,0-23.79,7.45-28.55,20.46l-.44,1.2c-8.38,1.34-15.25,5.92-19.82,13.13-1.03-.16-2.08-.26-3.16-.26h-2.49l3.33-9.15c.82-2.3,1.24-4.69,1.24-7.09,0-10.42-8.05-18.29-18.72-18.29h-29.9l-.7.07c-6.21.58-11.45,3.16-15.23,7.3-3.34-4.52-8.79-7.37-15.2-7.37h-47.82c-13.39,0-23.79,7.45-28.55,20.46l-.44,1.2c-2.27.36-4.42.98-6.46,1.8.43-1.7.66-3.43.66-5.18,0-10.42-8.05-18.29-18.72-18.29H39.97c-9.96,0-17.94,5.71-21.32,15.19l-4.83,13.28c-1.04,2.89-1.55,5.58-1.55,8.23,0,.62.03,1.23.08,1.84-2.29,2.32-4.1,5.18-5.31,8.51l-5.79,15.97c-.82,2.3-1.24,4.69-1.24,7.1,0,10.42,8.05,18.29,18.72,18.29h15.08c-7.03,1.87-12.51,6.96-15.16,14.39l-4.83,13.28c-1.04,2.89-1.55,5.58-1.55,8.23,0,.62.03,1.23.08,1.84-2.29,2.32-4.1,5.18-5.31,8.51l-5.79,15.97c-.82,2.3-1.24,4.69-1.24,7.1,0,10.42,8.05,18.29,18.72,18.29h75.01l.69-.06c7.29-.68,13.25-4.1,17.07-9.6,3.81,5.99,10.64,9.66,19.13,9.66h63.73c8.61,0,15.97-3.09,21.4-8.75,3.2,5.32,9.08,8.75,16.12,8.75h8.65l.69-.06c8.05-.75,14.5-4.83,18.21-11.39,2.66,6.84,9.33,11.45,17.55,11.45h29.2c7.26,0,13.5-3.09,17.68-8.55,3.94,5.32,10.49,8.55,18.52,8.55h63.73c13.39,0,23.79-7.45,28.55-20.45l7.74-21.25c1.2-3.29,1.78-6.35,1.78-9.36,0-12.61-9.32-21.42-22.67-21.42h-1.15c-.29-7.21-5.07-13.09-11.74-15.13.16,0,.31.02.47.02h69.06c9.39,0,17.02-5.09,20.7-13.63,2.01,8.02,9.13,13.63,18.14,13.63h7.96c9.83,0,17.79-5.66,21.32-15.2l5.1-14h26.65c9.83,0,17.79-5.65,21.31-15.17l6.83-18.65c.82-2.3,1.24-4.69,1.24-7.09,0-10.42-8.05-18.29-18.72-18.29Zm-232.36,88.4c-5.91,1.35-10.99,4.37-14.94,8.86-2.79-4.35-7.19-7.48-12.7-8.86h27.64Zm-60.47-3.09c1.73.99,3.63,1.77,5.7,2.29h-11.41c2.05-.53,3.97-1.3,5.72-2.29Zm-165.34,11.26c-3.17-5.45-9.12-8.97-16.25-8.97h-15.67c5.39-1.39,9.84-4.46,12.9-8.86,3.81,5.99,10.64,9.66,19.13,9.66h14.76c-1.73.42-3.48.99-5.23,1.74-3.7,1.6-6.93,3.77-9.63,6.43Zm104.98,1.7c-3.67-6.58-10.86-10.67-19.91-10.67h-9.8c3.62-.96,6.83-2.76,9.46-5.3,3.96,3.85,9.6,6.1,16.25,6.1h20.39c-1.74.42-3.48.99-5.22,1.73-4.42,1.9-8.18,4.65-11.17,8.14Zm147.75-10.67c3.62-.96,6.83-2.76,9.46-5.3,2.61,2.51,5.94,4.33,9.81,5.3h-19.27Z"/><path class="c" d="m32.74,20.31c1.27-3.54,3.67-5.31,7.23-5.31h74.31c2.48,0,3.72,1.1,3.72,3.29,0,.68-.12,1.36-.37,2.04l-1.9,5.26c-.78,2.19-2.24,3.75-4.38,4.67-1.02.44-1.97.66-2.85.66h-63.73c-1.66,0-2.87.9-3.65,2.7-.1.34-.15.66-.15.95,0,1.12.63,1.68,1.9,1.68h61.03c3.7,0,5.55,1.63,5.55,4.89,0,1.12-.17,2.14-.51,3.07l-8.69,23.87c-1.17,3.21-3.58,4.99-7.23,5.33H18.72c-2.48,0-3.72-1.09-3.72-3.29,0-.68.12-1.36.37-2.04l5.77-15.91c1.17-3.21,3.58-4.99,7.23-5.33h58.4c1.65,0,2.87-.89,3.65-2.66.1-.34.15-.69.15-1.04,0-1.09-.61-1.63-1.83-1.63h-55.77c-3.8,0-5.69-1.6-5.69-4.8,0-.87.22-1.92.66-3.13l4.82-13.25Z"/><path class="c" d="m144.14,36.24h2.63c1.8,0,3.02-.88,3.65-2.63l2.92-8.03c2.58-7.06,7.4-10.58,14.45-10.58h47.82c2.48,0,3.72,1.1,3.72,3.29,0,.73-.12,1.41-.37,2.04l-1.97,5.26c-1.31,3.55-3.72,5.33-7.23,5.33h-42.49c-1.61,0-2.8.9-3.58,2.7-.15.34-.22.66-.22.95,0,1.12.63,1.68,1.9,1.68h31.83c1.27,0,1.9.54,1.9,1.61,0,.34-.07.68-.22,1.02-.73,1.8-1.92,2.7-3.58,2.7h-45.11c-1.66,0-2.87.88-3.65,2.63-.1.34-.15.68-.15,1.02,0,1.07.61,1.61,1.83,1.61h61.1c2.48,0,3.72,1.1,3.72,3.29,0,.68-.12,1.36-.36,2.04l-5.77,15.91c-1.27,3.55-3.7,5.33-7.3,5.33h-68.99c-4.96,0-7.45-2.19-7.45-6.57,0-1.46.22-2.8.66-4.01l5.84-15.99c2.58-7.06,7.4-10.58,14.45-10.58Z"/><path class="c" d="m270.35,46.83c-.1.24-.15.58-.15,1.02,0,1.12.61,1.68,1.83,1.68h21.24c2.48,0,3.72,1.09,3.72,3.29,0,.63-.12,1.29-.37,1.97l-4.82,13.29c-1.17,3.21-3.58,4.99-7.23,5.33h-53.07c-4.96,0-7.45-2.19-7.45-6.57,0-1.46.22-2.8.66-4.01l15.48-42.49c1.17-3.21,3.58-4.99,7.23-5.33h29.2c2.48,0,3.72,1.1,3.72,3.29,0,.68-.12,1.36-.37,2.04l-9.64,26.5Z"/><path class="c" d="m321.6,36.24h2.63c1.8,0,3.02-.88,3.65-2.63l2.92-8.03c2.58-7.06,7.4-10.58,14.45-10.58h47.82c2.48,0,3.72,1.1,3.72,3.29,0,.73-.12,1.41-.37,2.04l-1.97,5.26c-1.31,3.55-3.72,5.33-7.23,5.33h-42.49c-1.61,0-2.8.9-3.58,2.7-.15.34-.22.66-.22.95,0,1.12.63,1.68,1.9,1.68h31.83c1.27,0,1.9.54,1.9,1.61,0,.34-.07.68-.22,1.02-.73,1.8-1.92,2.7-3.58,2.7h-45.11c-1.66,0-2.87.88-3.65,2.63-.1.34-.15.68-.15,1.02,0,1.07.61,1.61,1.83,1.61h61.1c2.48,0,3.72,1.1,3.72,3.29,0,.68-.12,1.36-.36,2.04l-5.77,15.91c-1.27,3.55-3.7,5.33-7.3,5.33h-68.99c-4.96,0-7.45-2.19-7.45-6.57,0-1.46.22-2.8.66-4.01l5.84-15.99c2.58-7.06,7.4-10.58,14.45-10.58Z"/><path class="c" d="m491.39,15c2.53,0,3.8,1.07,3.8,3.21,0,.73-.12,1.44-.37,2.12l-6.79,18.54c-1.31,3.55-3.72,5.33-7.23,5.33h-50.44c-1.66,0-2.87.88-3.65,2.63-.1.34-.15.68-.15,1.02,0,1.12.63,1.68,1.9,1.68h58.4c2.53,0,3.8,1.07,3.8,3.21,0,.54-.15,1.22-.44,2.04l-4.82,13.29c-1.27,3.55-3.67,5.33-7.23,5.33h-69.06c-5.06,0-7.59-2.14-7.59-6.42,0-1.17.29-2.55.88-4.16l13.5-37.23c2.58-7.06,7.4-10.58,14.45-10.58h61.03Z"/><path class="c" d="m503.73,44.2c-2.53,0-3.8-1.07-3.8-3.21,0-.58.15-1.29.44-2.12l6.72-18.54c1.27-3.55,3.7-5.33,7.3-5.33h74.31c2.48,0,3.72,1.1,3.72,3.29,0,.68-.12,1.36-.37,2.04l-6.79,18.54c-1.31,3.55-3.72,5.33-7.23,5.33h-34.46c-1.8,0-3.02.88-3.65,2.63l-7.74,21.24c-1.31,3.55-3.72,5.33-7.23,5.33h-7.96c-2.48,0-3.72-1.09-3.72-3.29,0-.68.12-1.36.37-2.04l7.67-21.24c.15-.39.22-.73.22-1.02,0-1.07-.63-1.61-1.9-1.61h-15.91Z"/><path class="c" d="m32.74,107.91c1.27-3.54,3.67-5.31,7.23-5.31h74.31c2.48,0,3.72,1.1,3.72,3.29,0,.68-.12,1.36-.37,2.04l-1.9,5.26c-.78,2.19-2.24,3.75-4.38,4.67-1.02.44-1.97.66-2.85.66h-63.73c-1.66,0-2.87.9-3.65,2.7-.1.34-.15.66-.15.95,0,1.12.63,1.68,1.9,1.68h61.03c3.7,0,5.55,1.63,5.55,4.89,0,1.12-.17,2.14-.51,3.07l-8.69,23.87c-1.17,3.21-3.58,4.99-7.23,5.33H18.72c-2.48,0-3.72-1.09-3.72-3.29,0-.68.12-1.36.37-2.04l5.77-15.91c1.17-3.21,3.58-4.99,7.23-5.33h58.4c1.65,0,2.87-.89,3.65-2.66.1-.34.15-.69.15-1.04,0-1.09-.61-1.63-1.83-1.63h-55.77c-3.8,0-5.69-1.6-5.69-4.8,0-.87.22-1.92.66-3.13l4.82-13.25Z"/><path class="c" d="m215.6,102.6c5.06,0,7.59,2.14,7.59,6.42,0,1.17-.29,2.55-.88,4.16l-13.5,37.23c-2.58,7.06-7.4,10.58-14.45,10.58h-63.73c-4.96,0-7.45-2.19-7.45-6.57,0-1.46.22-2.8.66-4.01l13.5-37.23c1.56-4.33,4.48-7.42,8.76-9.27,2.04-.88,3.97-1.31,5.77-1.31h63.73Zm-19.56,31.83c.1-.34.15-.68.15-1.02,0-1.07-.61-1.61-1.83-1.61h-21.24c-1.66,0-2.87.88-3.65,2.63-.1.34-.15.68-.15,1.02,0,1.12.61,1.68,1.83,1.68h21.24c1.65,0,2.87-.9,3.65-2.7Z"/><path class="c" d="m322.11,102.6c5.06,0,7.59,2.14,7.59,6.42,0,1.31-.27,2.7-.8,4.16l-15.48,42.49c-1.31,3.55-3.72,5.33-7.23,5.33h-29.2c-2.53,0-3.8-1.07-3.8-3.21,0-.63.15-1.34.44-2.12l12.56-34.46c.19-.54.29-1.22.29-2.04,0-2.19-1.24-3.29-3.72-3.29h-15.91c-3.5,0-5.91,1.78-7.23,5.33l-12.56,34.46c-1.17,3.21-3.58,4.99-7.23,5.33h-7.96c-2.48,0-3.72-1.09-3.72-3.29,0-.68.12-1.36.37-2.04l15.4-42.49c1.61-4.38,4.5-7.47,8.69-9.27,2.04-.88,3.99-1.31,5.84-1.31h63.66Z"/><path class="c" d="m382.92,137.13c1.65,0,2.87-.9,3.65-2.7.1-.34.15-.68.15-1.02,0-1.07-.61-1.61-1.82-1.61h-10.66c-2.53,0-3.8-1.07-3.8-3.21,0-.58.15-1.29.44-2.12l.95-2.63c1.26-3.55,3.7-5.33,7.3-5.33h42.41c5.11,0,7.67,2.14,7.67,6.42,0,1.22-.29,2.63-.88,4.23l-7.74,21.24c-2.58,7.06-7.4,10.58-14.45,10.58h-63.73c-5.06,0-7.59-2.14-7.59-6.42,0-1.17.29-2.55.88-4.16l13.5-37.23c2.58-7.06,7.4-10.58,14.45-10.58h39.79c1.31,0,1.97.54,1.97,1.61,0,.29-.07.63-.22,1.02l-1.97,5.33c-.63,1.75-1.82,2.63-3.58,2.63h-29.2c-1.75,0-2.97.9-3.65,2.7l-6.79,18.54c-.1.39-.15.75-.15,1.1,0,1.07.63,1.61,1.9,1.61h21.17Z"/></svg>