<?xml version="1.0" encoding="UTF-8"?>
<svg id="Layer_1" data-name="Layer 1" xmlns="http://www.w3.org/2000/svg" viewBox="0 0 125.88 125.88">
  <defs>
    <style>
      .cls-1 {
        fill: #fff;
      }

      .cls-1, .cls-2 {
        stroke-width: 0px;
      }

      .cls-2 {
        fill: #ff78b5;
      }
    </style>
  </defs>
  <path class="cls-2" d="m150.48,163.9c-6.09,6.09-9.82,13.62-12.08,20.18-1.13,3.27-5.72,3.27-6.85,0-2.27-6.56-5.99-14.09-12.08-20.18-6.09-6.09-13.62-9.81-20.18-12.08-3.27-1.13-3.27-5.72,0-6.85,6.56-2.27,14.1-5.99,20.18-12.08,6.09-6.09,9.81-13.62,12.08-20.18,1.13-3.27,5.72-3.28,6.85,0,2.27,6.56,6,14.09,12.08,20.18,6.09,6.09,13.62,9.81,20.18,12.08,3.27,1.13,3.27,5.72,0,6.85-6.56,2.27-14.09,5.99-20.18,12.08Z"/>
  <path class="cls-1" d="m87.91,87.91c-10.41,10.41-16.54,23.45-20.11,34.45-1.53,4.7-8.2,4.7-9.73,0-3.57-11-9.69-24.03-20.1-34.45S14.53,71.38,3.52,67.8c-4.7-1.53-4.7-8.2,0-9.73,11-3.57,24.04-9.69,34.45-20.11,10.41-10.41,16.53-23.44,20.1-34.45,1.52-4.7,8.2-4.7,9.73,0,3.57,11,9.7,24.04,20.11,34.45,10.41,10.41,23.44,16.53,34.44,20.11,4.7,1.53,4.7,8.2,0,9.73-11,3.57-24.03,9.69-34.44,20.11Z"/>
</svg>